<?xml version="1.0" encoding="UTF-8"?> <svg xmlns="http://www.w3.org/2000/svg" xmlns:xlink="http://www.w3.org/1999/xlink" viewBox="-43.51999999999999 84.94199999999994 1175.0399999999997 1014.4034999999999" fill="none" overflow="visible" width="1087.9999999999998px" height="939.2624999999999px"><rect id="Blush Background Color" fill="#ffffff" x="-43.51999999999999" y="84.94199999999994" width="1175.0399999999997" height="1014.4034999999999"></rect><g id="Master/Spot Illustrations/Perfect Landing"><path id="Fill 54 Copy" fill-rule="evenodd" clip-rule="evenodd" d="M911.082 930.832C913.006 916.013 906.915 916.899 900.844 903.245C894.772 889.59 892.944 890.402 886.873 876.747C880.8 863.09 882.627 862.277 876.554 848.619C870.481 834.962 868.626 835.785 862.581 822.115C861.584 819.715 858.641 814.012 852.671 808.72C848.791 805.281 843.005 803.054 838.471 799.376C833.913 795.68 830.554 790.49 826.488 787.336C818.831 781.396 818.638 783.73 811.863 778.708C809.267 776.795 807.823 768.645 804.548 759.623C802.447 753.834 798.341 747.887 796.019 741.25C793.735 734.72 793.219 727.451 790.765 721.657C787.501 713.951 782.506 708.704 779.031 705.487C775.833 702.526 771.178 700.955 765.527 702.779C761.335 704.133 757.629 708.231 753.245 710.908C748.976 713.515 743.705 714.85 740.176 717.667C734.672 722.061 732.204 727.153 731.334 728.854C728.414 738.693 727.354 736.463 724.079 748.12C722.427 753.997 722.384 761.326 720.222 768.381C718.253 774.802 714.216 780.844 711.995 787.294C709.648 794.108 709.073 801.401 706.63 807.213C703.772 814.013 698.63 817.592 694.706 821.194C689.947 825.563 685.784 829.931 680.451 832.845C675.285 835.668 668.915 837.061 664.215 841.805C660.5 845.554 658.718 851.5 655.848 858.259C651.294 869.097 649.462 868.328 644.921 879.171C640.38 890.015 642.225 890.787 637.683 901.631C633.141 912.476 631.296 911.703 626.754 922.548C622.212 933.393 614.799 933.45 619.509 944.224C623.957 954.396 628.963 948.714 639.616 951.844C650.269 954.975 650.833 953.056 661.486 956.186C672.141 959.317 671.577 961.236 682.231 964.367C692.886 967.498 692.744 968.415 703.846 968.67C721.892 969.084 721.84 968.184 739.72 965.708C757.6 963.231 757.326 961.25 775.206 958.774C793.087 956.298 793.362 958.279 811.244 955.803C829.126 953.326 828.939 952.175 846.688 948.876C855.03 947.325 855.299 948.457 863.448 946.096C871.598 943.733 871.041 941.812 879.191 939.45C887.342 937.088 887.33 937.008 895.81 936.685C904.849 936.341 909.989 939.248 911.082 930.832" fill="#3C5B5A"></path><path id="Fill 56 Copy" fill-rule="evenodd" clip-rule="evenodd" d="M1001.29 978.012C1004.41 960.483 998.828 961.004 992.521 944.356C986.213 927.705 982.473 929.122 976.166 912.472C969.858 895.822 973.569 894.419 967.293 877.757C966.35 875.073 957.654 871.433 950.944 865.014C946.29 860.561 943.732 852.861 938.937 848.627C930.7 841.355 928.891 845.039 921.241 838.66C918.552 836.432 918.9 825.249 915.769 814.354C913.648 806.973 907.574 799.932 905.165 792.472C902.091 782.953 902.1 772.652 898.43 768.837C895.041 765.315 888.161 769.33 881.458 772.018C876.412 774.04 869.202 773.638 864.536 776.813C857.813 781.387 855.509 788.4 854.486 790.215C850.534 801.831 847.681 798.989 843.198 812.297C840.798 819.42 841.745 828.821 838.742 836.764C835.709 844.789 828.809 851.143 825.649 857.864C821.925 865.783 819.926 873.163 814.587 876.828C808.352 881.109 799.36 880.4 793.337 884.267C787.712 887.879 785.651 895.083 782.408 903.233C776.63 916.03 772.815 914.274 766.856 926.988C760.896 939.702 764.518 941.401 758.557 954.116C752.597 966.83 738.057 966.232 742.952 979.394C747.493 991.607 757.783 981.127 770.076 985.446C782.372 989.764 781.046 993.537 793.342 997.857C805.637 1002.17 805.734 1001.7 818.734 1002.61C839.867 1004.08 839.873 1004.61 860.963 1002.61C882.055 1000.62 881.679 996.64 902.772 994.648C923.864 992.656 924.451 997.616 945.426 994.635C955.301 993.232 954.353 988.33 964.039 985.949C973.726 983.566 973.918 985.142 983.894 985.126C994.148 985.11 999.55 987.833 1001.29 978.012" fill="#3C5B5A"></path><g id="Group"><path id="Fill 76" fill-rule="evenodd" clip-rule="evenodd" d="M799.359 1036.35C810.672 1035.14 822.51 1038.49 834.012 1039.73C846.168 1041.04 858.316 1040.37 868.695 1042.62C884.547 1046.05 896.858 1052.41 902.54 1052.57C908.479 1052.74 920.552 1047.12 934.507 1043.42C944.857 1040.69 956.726 1040.27 966.903 1037.22C981.702 1032.78 993.64 1025.97 997.953 1024.88C1004.28 1023.28 1011.05 1024.87 1017.31 1023.73C1023.66 1022.59 1029.62 1018.7 1035.98 1017.82C1042.3 1016.94 1048.96 1019.07 1055.37 1018.23C1057.97 1017.89 1061.47 1014.7 1065.52 1014.21C1068.96 1013.79 1073.04 1016.12 1076.31 1015.2C1080.26 1014.1 1082.42 1010.08 1084.35 1007.68C1086.52 1004.98 1088.78 1002.7 1087.74 1000.43C1086.75 998.288 1082.96 998.416 1080.59 997.017C1078.39 995.719 1076.69 992.05 1074.47 991.688C1070.73 991.079 1063.25 993.886 1054.6 993.378C1048.54 993.023 1042.02 989.544 1035.27 988.516C1028.64 987.503 1021.43 988.883 1015.51 986.647C1010.16 984.627 1006.31 979.403 1001.92 976.614C996.826 973.374 990.932 972.211 987.278 968.717C982.011 963.679 980.283 956.92 978.437 953.491C975.435 947.917 967.628 943.566 960.416 937.792C954.418 932.989 948.807 926.006 942.016 922.707C934.121 918.872 925.897 919.386 919.743 919.763C908.169 920.474 897.631 919.148 888.213 921.047C877.064 923.295 867.541 928.866 857.838 930.982C847.436 933.251 837.15 931.96 826.375 931.757C815.033 931.543 805.044 931.749 796.813 927.866C786.913 923.197 780.079 914.169 772.638 907.897C763.932 900.56 754.928 896.082 746.275 892.564C739.621 889.859 732.527 887.416 724.937 888.916C717.98 890.291 711.277 895.488 704.136 897.17C696.758 898.908 689.38 897.088 682.432 895.806C675.721 894.57 667.704 894.582 660.508 891.114C653.546 887.758 647.812 881.126 641.667 877.331C633.374 872.211 625.165 870.031 621.034 867.581C616.054 864.628 608.774 853.139 597.896 843.43C590.208 836.568 580.008 831.824 570.674 826.179C561.215 820.46 551.864 813.567 541.826 813.027C533.445 812.576 525.972 817.834 518.295 821.589C510.859 825.224 502.488 827.473 495.335 832.179C487.978 837.019 481.754 844.346 474.297 847.282C468.149 849.703 461.58 847.834 455.477 847.911C449.255 847.99 442.832 850.035 436.656 848.725C430.546 847.43 424.998 842.827 418.934 841.201C412.148 839.383 405.133 841.763 398.424 842.297C391.625 842.837 384.419 841.595 377.946 844.064C371.5 846.523 366.349 852.489 360.472 856.377C354.422 860.379 347.276 862.395 341.435 866.703C335.522 871.065 330.775 877.792 324.389 880.936C318.133 884.018 310.894 883.322 303.526 883.774C297.025 884.173 290.963 886.586 285.163 885.849C279.009 885.068 273.288 881.111 267.169 880.708C261.358 880.325 255.568 883.417 249.105 884.876C241.67 886.554 234.542 886.003 228.684 888.765C222.242 891.802 217.61 898.064 211.692 902.218C206.225 906.054 199.271 907.838 193.061 912.46C186.441 917.389 179.979 922.301 172.181 923.4C164.818 924.439 156.827 921.545 148.86 921.939C141.324 922.312 133.982 925.903 126.283 928.04C116.35 930.798 108.899 931.968 103.582 936.251C97.1982 941.393 93.8159 949.666 86.229 955.199C80.8723 959.105 73.0673 960.211 63.4656 963.473C55.7367 966.1 47.8938 971.329 39.5906 973.883C30.8263 976.579 21.4715 976.684 14.552 980.201C4.81289 985.151 0 992.72 0 1001.51C0 1007.21 7.88452 1012.41 20.1554 1014.87C27.9742 1016.43 37.275 1014.56 45.7182 1015.26C55.992 1016.11 65.3468 1019.4 70.9776 1019.55C78.2188 1019.74 86.4054 1019.07 94.3499 1021.87C101.745 1024.47 108.54 1030.4 115.953 1032.85C123.923 1035.48 132.048 1034.45 139.355 1034.11C145.885 1033.8 152.199 1035.55 158.018 1034.17C164.115 1032.73 169.536 1028.14 175.67 1026.96C181.498 1025.85 187.674 1028.11 194.27 1028.53C201.636 1029 209.009 1027.83 215.855 1029.9C222.804 1032.01 228.999 1037.32 236.008 1039.18C242.857 1040.99 250.14 1039.33 257.612 1039.11C268.158 1038.8 277.44 1040.14 285.464 1038.18C295.557 1035.72 303.616 1029.77 311.939 1027.88C320.911 1025.84 329.501 1028.04 339.4 1030.94C349.636 1033.95 359.728 1033.62 369.132 1035.7C378.89 1037.86 388.146 1042.44 398.339 1043.61C407.658 1044.68 417.598 1042.39 428.365 1042.63C438.842 1042.87 449.409 1045.82 459.979 1045.56C470.526 1045.29 480.956 1041.81 491.433 1040.96C502.022 1040.09 512.797 1041.84 523.145 1040.28C532.891 1038.81 544.285 1034.48 556.328 1033.4C567.622 1032.38 579.379 1034.58 590.056 1034.31C603.664 1033.97 615.933 1031.46 623.821 1033.05C631.09 1034.51 640.905 1041.31 653.434 1045.38C662.589 1048.36 673.466 1048.54 684.499 1050.76C694.388 1052.75 704.646 1057 715.445 1057C726.718 1057 735.73 1053.06 743.716 1051.51C754.581 1049.4 763.746 1049.16 772.001 1046.28C780.823 1043.19 788.791 1037.47 799.359 1036.35" fill="#83C7C9"></path><path id="Fill 79" fill-rule="evenodd" clip-rule="evenodd" d="M111 989.17C112.133 988.756 113.345 988.487 114.586 988.48C115.204 988.462 115.797 988.506 116.362 988.486C116.929 988.469 117.479 988.41 118.031 988.295C119.13 988.086 120.261 987.76 121.261 987.326C121.761 987.098 122.226 986.848 122.711 986.546C123.195 986.249 123.729 985.885 124.33 985.577C125.538 984.948 126.805 984.576 128.05 984.325C129.281 984.043 130.731 983.987 131.986 984.131C133.21 984.267 134.095 984.313 135.175 984.138C136.269 983.986 137.254 983.748 138.126 983.309C138.569 983.091 139.002 982.821 139.528 982.479C140.05 982.143 140.7 981.748 141.414 981.488C142.124 981.233 142.863 981.078 143.547 981.038C143.9 980.994 144.226 981.013 144.566 981C144.929 981.004 145.352 981.036 145.779 981.139C146.652 981.309 147.574 982.001 148.034 982.57C148.53 983.145 148.79 983.511 149.095 983.765C149.398 984.029 149.728 984.196 150.212 984.351C150.673 984.504 151.053 984.559 151.511 984.534C151.966 984.505 152.686 984.352 153.45 984.409C154.21 984.465 154.89 984.672 155.516 984.953C156.143 985.227 156.804 985.629 157.319 986.153C157.845 986.678 158.164 987.137 158.541 987.464C158.907 987.809 159.377 988.075 159.887 988.294C160.398 988.513 160.907 988.644 161.447 988.684C161.984 988.72 162.6 988.608 163.234 988.66C163.865 988.717 164.459 988.907 165 989.188C164.404 989.101 163.813 989.07 163.255 989.188C162.699 989.282 162.159 989.526 161.51 989.651C160.864 989.781 160.18 989.73 159.551 989.6C158.92 989.47 158.267 989.269 157.651 988.89C157.031 988.51 156.554 987.997 156.154 987.722C155.752 987.425 155.328 987.258 154.832 987.125C154.335 986.998 153.842 986.919 153.413 986.949C152.986 986.969 152.54 987.132 151.82 987.266C151.097 987.399 150.274 987.369 149.582 987.209C148.913 987.072 148.109 986.778 147.447 986.289C146.772 985.811 146.26 985.185 145.927 984.847C145.567 984.498 145.45 984.451 145.146 984.389C144.99 984.367 144.818 984.361 144.589 984.365C144.336 984.386 144.065 984.376 143.829 984.419C143.328 984.464 142.896 984.587 142.485 984.748C142.075 984.907 141.681 985.138 141.188 985.465C140.699 985.787 140.111 986.177 139.473 986.493C138.18 987.121 136.813 987.421 135.552 987.566C134.903 987.645 134.22 987.672 133.541 987.641C132.861 987.612 132.2 987.513 131.639 987.422C130.538 987.24 129.589 987.231 128.477 987.368C127.379 987.509 126.31 987.712 125.334 988.098C124.842 988.294 124.332 988.544 123.751 988.814C123.174 989.084 122.542 989.334 121.912 989.5C120.642 989.819 119.427 989.977 118.162 989.999C116.891 990.017 115.617 989.718 114.505 989.441C113.379 989.179 112.203 989.137 111 989.17" fill="#509FA6"></path><path id="Fill 85" fill-rule="evenodd" clip-rule="evenodd" d="M221 937.873C221.947 937.586 222.905 937.339 223.881 937.149C224.855 936.969 225.853 936.866 226.839 936.814C227.826 936.755 228.787 936.732 229.734 936.613C230.68 936.501 231.62 936.314 232.557 936.096C234.439 935.65 236.293 935.128 238.014 934.328C238.879 933.93 239.752 933.47 240.703 933.045C241.649 932.617 242.634 932.256 243.616 931.954C245.582 931.381 247.536 930.921 249.616 930.73C250.65 930.633 251.697 930.631 252.658 930.64C253.622 930.645 254.519 930.617 255.434 930.511C256.346 930.401 257.267 930.252 258.194 930.058C259.104 929.861 259.983 929.643 260.818 929.318C261.661 929.005 262.452 928.622 263.299 928.142C264.144 927.675 265.111 927.1 266.198 926.717C267.278 926.33 268.391 926.137 269.451 926.063C269.991 926.003 270.506 926.021 271.033 926C271.574 926.017 272.111 926.021 272.672 926.101C273.774 926.236 274.982 926.587 276.009 927.197C277.04 927.802 277.809 928.44 278.556 928.891C279.305 929.356 280.089 929.702 280.941 929.967C281.785 930.229 282.734 930.454 283.608 930.596C284.502 930.747 285.365 930.772 286.338 930.773C287.321 930.776 288.414 930.816 289.446 930.999C290.485 931.171 291.475 931.426 292.457 931.731C293.438 932.033 294.429 932.395 295.376 932.888C296.333 933.372 297.185 933.964 298.007 934.427C298.831 934.898 299.689 935.276 300.592 935.599C301.491 935.925 302.418 936.215 303.345 936.436C304.275 936.659 305.207 936.772 306.17 936.836C307.133 936.893 308.144 936.916 309.126 937.097C310.108 937.28 311.065 937.547 312 937.878C311.025 937.75 310.053 937.637 309.086 937.64C308.12 937.617 307.171 937.738 306.182 937.832C304.176 938.046 302.14 937.746 300.179 937.305C299.192 937.073 298.195 936.737 297.24 936.308C296.279 935.879 295.424 935.398 294.566 935.069C293.705 934.733 292.82 934.464 291.902 934.254C290.986 934.038 290.054 933.871 289.151 933.787C288.242 933.695 287.374 933.726 286.404 933.789C285.424 933.851 284.326 933.87 283.278 933.747C282.212 933.627 281.235 933.452 280.187 933.165C279.148 932.885 278.089 932.465 277.114 931.903C276.126 931.347 275.308 930.695 274.596 930.313C273.885 929.917 273.165 929.728 272.326 929.635C271.917 929.58 271.475 929.579 271.038 929.567C270.59 929.591 270.125 929.576 269.692 929.631C268.802 929.698 267.97 929.858 267.189 930.142C266.405 930.408 265.633 930.85 264.728 931.347C263.829 931.843 262.826 932.339 261.807 932.691C260.788 933.06 259.75 933.294 258.737 933.489C257.74 933.676 256.722 933.823 255.687 933.903C254.654 933.987 253.593 933.98 252.603 933.937C251.609 933.9 250.7 933.846 249.782 933.888C247.957 933.973 246.049 934.279 244.206 934.674C243.288 934.887 242.396 935.145 241.508 935.472C240.624 935.795 239.704 936.207 238.727 936.538C236.768 937.22 234.774 937.584 232.8 937.832C231.804 937.936 230.8 938.007 229.794 937.999C228.788 937.994 227.792 937.907 226.825 937.805C224.898 937.595 222.96 937.68 221 937.873" fill="#509FA6"></path><path id="Fill 87" fill-rule="evenodd" clip-rule="evenodd" d="M487 882.873C487.947 882.586 488.905 882.339 489.881 882.149C490.855 881.969 491.853 881.865 492.839 881.814C493.826 881.755 494.787 881.732 495.734 881.613C496.68 881.501 497.621 881.314 498.557 881.096C500.439 880.65 502.293 880.128 504.014 879.328C504.879 878.93 505.752 878.469 506.703 878.045C507.649 877.617 508.634 877.256 509.616 876.954C511.582 876.381 513.536 875.92 515.616 875.73C516.65 875.633 517.698 875.631 518.658 875.64C519.622 875.645 520.519 875.617 521.434 875.511C522.346 875.401 523.267 875.252 524.195 875.058C525.104 874.861 525.983 874.643 526.817 874.318C527.661 874.005 528.451 873.622 529.299 873.142C530.144 872.675 531.111 872.1 532.198 871.717C533.278 871.329 534.391 871.136 535.451 871.063C535.991 871.003 536.506 871.021 537.033 871C537.574 871.017 538.111 871.021 538.672 871.101C539.774 871.236 540.982 871.587 542.009 872.197C543.04 872.802 543.809 873.44 544.556 873.891C545.305 874.356 546.089 874.702 546.941 874.967C547.785 875.229 548.734 875.454 549.609 875.596C550.502 875.747 551.365 875.772 552.338 875.773C553.321 875.776 554.414 875.815 555.446 875.998C556.485 876.171 557.475 876.426 558.457 876.73C559.438 877.033 560.429 877.395 561.376 877.888C562.333 878.372 563.185 878.964 564.007 879.426C564.831 879.898 565.689 880.276 566.592 880.599C567.491 880.925 568.418 881.215 569.345 881.436C570.275 881.659 571.206 881.772 572.17 881.836C573.133 881.893 574.144 881.916 575.126 882.097C576.108 882.28 577.065 882.546 578 882.878C577.025 882.75 576.053 882.637 575.086 882.64C574.12 882.617 573.171 882.738 572.182 882.832C570.176 883.046 568.14 882.746 566.179 882.305C565.191 882.073 564.195 881.737 563.24 881.308C562.279 880.879 561.424 880.398 560.566 880.069C559.705 879.732 558.82 879.464 557.902 879.253C556.986 879.038 556.054 878.87 555.151 878.787C554.242 878.695 553.374 878.725 552.404 878.789C551.424 878.851 550.326 878.87 549.278 878.747C548.212 878.627 547.235 878.452 546.187 878.165C545.148 877.884 544.089 877.465 543.114 876.903C542.127 876.347 541.308 875.694 540.596 875.313C539.885 874.916 539.165 874.727 538.327 874.635C537.917 874.58 537.475 874.579 537.038 874.567C536.59 874.591 536.125 874.576 535.692 874.631C534.802 874.698 533.97 874.858 533.189 875.142C532.405 875.408 531.633 875.85 530.728 876.347C529.829 876.843 528.826 877.339 527.807 877.691C526.788 878.06 525.75 878.294 524.737 878.489C523.74 878.675 522.722 878.823 521.687 878.903C520.654 878.987 519.593 878.98 518.603 878.937C517.609 878.9 516.7 878.846 515.782 878.888C513.957 878.973 512.049 879.279 510.206 879.673C509.288 879.887 508.396 880.145 507.508 880.472C506.624 880.795 505.704 881.207 504.727 881.538C502.768 882.219 500.775 882.584 498.8 882.832C497.804 882.936 496.8 883.007 495.794 882.999C494.788 882.994 493.792 882.907 492.825 882.805C490.898 882.595 488.96 882.68 487 882.873" fill="#509FA6"></path><path id="Fill 89" fill-rule="evenodd" clip-rule="evenodd" d="M532 1005.87C532.947 1005.59 533.905 1005.34 534.881 1005.15C535.855 1004.97 536.853 1004.87 537.839 1004.81C538.826 1004.75 539.787 1004.73 540.734 1004.61C541.68 1004.5 542.62 1004.31 543.557 1004.1C545.439 1003.65 547.293 1003.13 549.014 1002.33C549.879 1001.93 550.752 1001.47 551.703 1001.04C552.649 1000.62 553.634 1000.26 554.616 999.954C556.582 999.381 558.536 998.92 560.616 998.73C561.65 998.633 562.697 998.632 563.658 998.64C564.622 998.645 565.519 998.617 566.434 998.511C567.346 998.401 568.267 998.252 569.194 998.058C570.103 997.862 570.982 997.643 571.817 997.318C572.661 997.005 573.451 996.622 574.299 996.143C575.144 995.675 576.111 995.101 577.198 994.717C578.278 994.33 579.391 994.137 580.451 994.064C580.99 994.003 581.506 994.021 582.033 994C582.574 994.017 583.111 994.021 583.672 994.102C584.773 994.237 585.982 994.588 587.009 995.197C588.04 995.803 588.809 996.44 589.555 996.891C590.305 997.357 591.089 997.703 591.941 997.967C592.784 998.23 593.734 998.455 594.608 998.596C595.502 998.748 596.364 998.772 597.338 998.773C598.321 998.776 599.414 998.816 600.446 998.999C601.485 999.171 602.475 999.426 603.457 999.73C604.438 1000.03 605.429 1000.39 606.376 1000.89C607.333 1001.37 608.185 1001.96 609.007 1002.43C609.831 1002.9 610.689 1003.28 611.591 1003.6C612.491 1003.93 613.418 1004.22 614.345 1004.44C615.275 1004.66 616.206 1004.77 617.17 1004.84C618.133 1004.89 619.144 1004.92 620.126 1005.1C621.108 1005.28 622.065 1005.55 623 1005.88C622.025 1005.75 621.053 1005.64 620.086 1005.64C619.119 1005.62 618.171 1005.74 617.182 1005.83C615.176 1006.05 613.14 1005.75 611.179 1005.31C610.191 1005.07 609.195 1004.74 608.24 1004.31C607.279 1003.88 606.424 1003.4 605.566 1003.07C604.705 1002.73 603.82 1002.47 602.902 1002.25C601.985 1002.04 601.054 1001.87 600.151 1001.79C599.242 1001.7 598.374 1001.73 597.404 1001.79C596.424 1001.85 595.325 1001.87 594.277 1001.75C593.212 1001.63 592.235 1001.45 591.187 1001.16C590.148 1000.88 589.088 1000.47 588.114 999.904C587.126 999.348 586.308 998.695 585.595 998.313C584.885 997.916 584.165 997.727 583.326 997.635C582.917 997.581 582.475 997.58 582.038 997.567C581.59 997.591 581.125 997.576 580.691 997.631C579.802 997.698 578.97 997.859 578.189 998.142C577.405 998.409 576.632 998.85 575.728 999.348C574.829 999.844 573.826 1000.34 572.807 1000.69C571.788 1001.06 570.749 1001.29 569.737 1001.49C568.74 1001.68 567.721 1001.82 566.687 1001.9C565.654 1001.99 564.592 1001.98 563.602 1001.94C562.609 1001.9 561.7 1001.85 560.782 1001.89C558.957 1001.97 557.048 1002.28 555.205 1002.67C554.288 1002.89 553.396 1003.15 552.508 1003.47C551.624 1003.8 550.704 1004.21 549.726 1004.54C547.767 1005.22 545.774 1005.58 543.799 1005.83C542.803 1005.94 541.8 1006.01 540.794 1006C539.787 1005.99 538.791 1005.91 537.825 1005.81C535.898 1005.59 533.959 1005.68 532 1005.87" fill="#509FA6"></path><path id="Fill 91" fill-rule="evenodd" clip-rule="evenodd" d="M703 947.873C703.947 947.587 704.905 947.339 705.881 947.148C706.855 946.97 707.853 946.866 708.839 946.813C709.826 946.754 710.787 946.732 711.734 946.614C712.68 946.501 713.62 946.315 714.557 946.095C716.439 945.65 718.293 945.127 720.014 944.328C720.879 943.93 721.752 943.47 722.703 943.044C723.649 942.618 724.634 942.255 725.616 941.954C727.582 941.381 729.536 940.92 731.616 940.73C732.65 940.633 733.697 940.632 734.658 940.639C735.622 940.645 736.519 940.617 737.434 940.51C738.346 940.4 739.267 940.252 740.194 940.057C741.104 939.861 741.982 939.642 742.817 939.318C743.661 939.005 744.451 938.621 745.299 938.143C746.144 937.675 747.111 937.101 748.198 936.717C749.278 936.33 750.391 936.137 751.451 936.063C751.991 936.003 752.506 936.02 753.033 936C753.574 936.017 754.111 936.02 754.672 936.102C755.773 936.237 756.982 936.588 758.009 937.197C759.04 937.803 759.809 938.44 760.556 938.891C761.305 939.357 762.089 939.703 762.941 939.967C763.784 940.23 764.734 940.455 765.608 940.596C766.502 940.748 767.365 940.771 768.338 940.773C769.321 940.776 770.414 940.816 771.446 940.999C772.485 941.171 773.475 941.426 774.457 941.73C775.438 942.033 776.429 942.395 777.376 942.889C778.333 943.372 779.185 943.964 780.007 944.427C780.831 944.899 781.689 945.276 782.591 945.599C783.491 945.925 784.418 946.216 785.345 946.436C786.275 946.659 787.206 946.772 788.17 946.836C789.133 946.893 790.144 946.916 791.126 947.097C792.108 947.28 793.065 947.546 794 947.879C793.025 947.75 792.053 947.637 791.086 947.64C790.119 947.617 789.171 947.739 788.182 947.832C786.176 948.046 784.14 947.746 782.179 947.306C781.191 947.072 780.195 946.738 779.24 946.309C778.279 945.879 777.424 945.399 776.566 945.069C775.705 944.732 774.82 944.465 773.902 944.253C772.985 944.038 772.054 943.871 771.151 943.787C770.242 943.694 769.374 943.725 768.404 943.79C767.424 943.851 766.325 943.87 765.278 943.747C764.212 943.627 763.235 943.453 762.187 943.165C761.148 942.885 760.088 942.465 759.114 941.904C758.126 941.348 757.308 940.695 756.596 940.313C755.885 939.916 755.165 939.727 754.326 939.635C753.917 939.581 753.475 939.58 753.038 939.567C752.59 939.59 752.125 939.575 751.692 939.631C750.802 939.698 749.97 939.859 749.189 940.142C748.405 940.409 747.632 940.85 746.728 941.347C745.829 941.844 744.826 942.339 743.807 942.691C742.788 943.061 741.75 943.294 740.737 943.489C739.74 943.675 738.721 943.824 737.687 943.903C736.654 943.987 735.593 943.98 734.602 943.938C733.609 943.9 732.7 943.846 731.782 943.887C729.957 943.973 728.049 944.278 726.205 944.673C725.288 944.887 724.396 945.145 723.508 945.473C722.624 945.795 721.704 946.208 720.727 946.538C718.767 947.22 716.774 947.584 714.8 947.832C713.804 947.937 712.8 948.007 711.794 947.999C710.787 947.994 709.791 947.907 708.825 947.806C706.898 947.595 704.959 947.679 703 947.873" fill="#509FA6"></path></g><g id="Spaceship" transform="translate(176 474.888) scale(1 1)"><g id="Spaceship/Base 1"><path id="Fill 1" opacity="0.1" fill-rule="evenodd" clip-rule="evenodd" d="M148.005 458.765C140.879 459.714 133.868 460.767 126.43 461.293C123.138 461.526 119.934 461.676 116.683 461.969C111.357 462.45 106.059 461.999 100.635 461.999C94.1673 461.999 91.4573 460.445 83.2653 460.341C75.0713 460.238 65.6693 462.064 57.7603 462.519C48.5043 463.051 42.0803 462.519 33.5653 464.356C25.8373 466.022 20.1723 465.249 11.8823 465.024C0.768252 464.721 -3.89375 470.082 7.88625 471.168C17.2153 472.029 27.6843 471.138 36.9393 472.231C42.0063 472.828 46.0583 474.496 51.1763 475.114C57.9543 475.93 65.8472 477.303 72.8522 477.052C85.7242 476.59 97.8603 474.87 110.776 475.758C123.324 476.62 134.373 478.482 147.427 477.818C154.37 477.464 161.044 476.36 167.875 475.754C173.188 475.284 178.648 475.53 183.956 474.996C190.075 474.383 196.001 473.189 202.483 473C209.263 472.804 212.09 474.32 222.205 474.517C228.438 474.638 240.187 473.994 246.238 474.088C256.38 474.245 260.649 475.758 270.738 476.058C283.148 476.426 295.053 476.386 307.217 475.326C312.235 474.888 317.387 475.214 322.406 474.683C327.783 474.115 332.973 473.044 338.498 472.675C342.974 472.375 371.694 471.575 365.826 467.276C363.258 465.394 353.86 465.482 349.432 465.224C335.452 464.411 339.396 462.754 327.496 462.261C315.467 461.762 304.618 460.341 294.344 459.851C285.156 459.413 274.175 460.088 264.91 460.341C258.047 460.529 242.758 458.193 235.909 458.5C222.586 459.1 219.5 460.127 208.121 460.341C199.093 460.511 191.789 459.627 183.143 458.967C173.504 458.233 163.117 456.927 153.456 458.073C151.625 458.29 149.812 458.524 148.005 458.765" fill="#020202"></path><g id="Group 65"><path id="Fill 4" fill-rule="evenodd" clip-rule="evenodd" d="M289.992 331.871H81.5766C79.3186 331.871 77.2996 330.467 76.5126 328.35L69.7656 310.208C68.4526 306.678 71.0636 302.921 74.8306 302.921H297.966C301.866 302.921 304.481 306.928 302.912 310.498L294.938 328.642C294.076 330.603 292.136 331.871 289.992 331.871" fill="#A4DDD8"></path><path id="Fill 6" fill-rule="evenodd" clip-rule="evenodd" d="M252.766 352.533H119.597C113.88 352.533 108.561 349.608 105.499 344.78L97.3086 331.871H275.993L266.411 345.459C263.283 349.894 258.194 352.533 252.766 352.533" fill="#8BC9C1"></path><g id="Group 10"><mask id="mask0_122_21571c605727d-ce78-4a05-af0e-05f69cbb787d" style="mask-type:alpha" maskUnits="userSpaceOnUse" x="56" y="106" width="261" height="197" fill="#ffffff"><path id="Clip 9" fill-rule="evenodd" clip-rule="evenodd" d="M56.4707 106H316.68V302.92H56.4707V106Z" fill="#ffffff"></path></mask><g mask="url(#mask0_122_21571c605727d-ce78-4a05-af0e-05f69cbb787d)"><path id="Fill 8" fill-rule="evenodd" clip-rule="evenodd" d="M298.227 302.92C309.941 283.39 316.68 260.535 316.68 236.104C316.68 164.249 258.43 105.999 186.576 105.999C114.721 105.999 56.4707 164.249 56.4707 236.104C56.4707 260.535 63.2097 283.39 74.9237 302.92H298.227Z" fill="#DFEFED"></path></g></g><path id="Fill 11" fill-rule="evenodd" clip-rule="evenodd" d="M76.3616 467.79H30.3516C30.3516 455.991 40.6516 446.427 53.3566 446.427C66.0626 446.427 76.3616 455.991 76.3616 467.79" fill="#8BC9C1"></path><path id="Fill 13" fill-rule="evenodd" clip-rule="evenodd" d="M294.51 467.79H340.52C340.52 455.991 330.22 446.427 317.515 446.427C304.81 446.427 294.51 455.991 294.51 467.79" fill="#8BC9C1"></path><path id="Fill 15" fill-rule="evenodd" clip-rule="evenodd" d="M163.645 467.79H209.655C209.655 455.991 199.355 446.427 186.65 446.427C173.945 446.427 163.645 455.991 163.645 467.79" fill="#8BC9C1"></path><path id="Fill 17" fill-rule="evenodd" clip-rule="evenodd" d="M223.078 177.013C223.078 197.173 206.735 213.516 186.575 213.516C166.415 213.516 150.072 197.173 150.072 177.013C150.072 156.853 166.415 140.51 186.575 140.51C206.735 140.51 223.078 156.853 223.078 177.013" fill="#A4DDD8"></path><path id="Fill 19" fill-rule="evenodd" clip-rule="evenodd" d="M216.841 177.013C216.841 193.728 203.291 207.279 186.575 207.279C169.86 207.279 156.309 193.728 156.309 177.013C156.309 160.297 169.86 146.746 186.575 146.746C203.291 146.746 216.841 160.297 216.841 177.013" fill="#8BC9C1"></path><path id="Fill 21" fill-rule="evenodd" clip-rule="evenodd" d="M53.356 446.426C55.313 446.426 57.211 446.655 59.026 447.081L92.568 331.87H84.795L51.332 446.513C51.999 446.459 52.673 446.426 53.356 446.426" fill="#DFEFED"></path><path id="Fill 23" fill-rule="evenodd" clip-rule="evenodd" d="M317.515 446.426C318.198 446.426 318.871 446.458 319.539 446.513L286.076 331.87H278.303L311.846 447.081C313.66 446.655 315.558 446.426 317.515 446.426" fill="#DFEFED"></path><path id="Fill 25" fill-rule="evenodd" clip-rule="evenodd" d="M186.65 446.426C187.99 446.426 189.3 446.538 190.577 446.742L190.49 331.87H182.717V446.743C183.996 446.538 185.308 446.426 186.65 446.426" fill="#DFEFED"></path><path id="Fill 27" fill-rule="evenodd" clip-rule="evenodd" d="M98.0603 140.762C96.6693 140.601 95.2573 140.51 93.8233 140.51C73.6643 140.51 57.3203 156.853 57.3203 177.013C57.3203 184.028 59.3033 190.577 62.7333 196.141C69.6413 174.718 81.9513 155.725 98.0603 140.762" fill="#A4DDD8"></path><path id="Fill 29" fill-rule="evenodd" clip-rule="evenodd" d="M310.416 196.141C313.847 190.578 315.83 184.028 315.83 177.013C315.83 156.853 299.486 140.51 279.326 140.51C277.893 140.51 276.48 140.601 275.09 140.762C291.199 155.725 303.509 174.718 310.416 196.141" fill="#A4DDD8"></path><path id="Fill 31" fill-rule="evenodd" clip-rule="evenodd" d="M313.558 265.538H242.07C241.804 265.538 241.55 265.433 241.363 265.245L218.589 242.471H156.647L135.492 263.627C135.304 263.814 135.05 263.92 134.785 263.92H59.2402C58.6872 263.92 58.2402 263.473 58.2402 262.92C58.2402 262.367 58.6872 261.92 59.2402 261.92H134.371L155.526 240.764C155.713 240.576 155.967 240.471 156.233 240.471H219.003C219.269 240.471 219.523 240.576 219.71 240.764L242.484 263.538H313.558C314.111 263.538 314.558 263.985 314.558 264.538C314.558 265.091 314.111 265.538 313.558 265.538" fill="#A4DDD8"></path><path id="Fill 33" fill-rule="evenodd" clip-rule="evenodd" d="M59.2402 251.657C58.7102 251.657 58.2002 251.457 57.8202 251.077C57.7302 250.977 57.6502 250.877 57.5702 250.767C57.5002 250.667 57.4402 250.548 57.3902 250.428C57.3402 250.307 57.3002 250.187 57.2802 250.057C57.2502 249.928 57.2402 249.798 57.2402 249.667C57.2402 249.537 57.2502 249.397 57.2802 249.267C57.3102 249.147 57.3402 249.017 57.3902 248.897C57.4402 248.777 57.5002 248.657 57.5802 248.548C57.6502 248.437 57.7302 248.338 57.8202 248.247C57.9202 248.157 58.0202 248.067 58.1302 247.997C58.2402 247.928 58.3502 247.867 58.4702 247.817C58.6002 247.767 58.7202 247.727 58.8502 247.697C59.1102 247.647 59.3702 247.647 59.6302 247.697C59.7612 247.727 59.8802 247.767 60.0002 247.817C60.1202 247.867 60.2402 247.928 60.3502 247.997C60.4602 248.067 60.5602 248.157 60.6502 248.247C60.7402 248.338 60.8302 248.437 60.9002 248.548C60.9702 248.657 61.0402 248.777 61.0902 248.897C61.1402 249.017 61.1702 249.147 61.2002 249.267C61.2302 249.397 61.2402 249.537 61.2402 249.667C61.2402 249.798 61.2302 249.928 61.2002 250.057C61.1802 250.187 61.1402 250.307 61.0902 250.428C61.0402 250.548 60.9802 250.667 60.9002 250.767C60.8302 250.877 60.7502 250.977 60.6502 251.077C60.2702 251.457 59.7702 251.657 59.2402 251.657" fill="#A4DDD8"></path><path id="Fill 35" fill-rule="evenodd" clip-rule="evenodd" d="M155.089 228.206C155.089 227.106 155.98 226.217 157.089 226.217C158.19 226.217 159.089 227.106 159.089 228.206C159.089 229.316 158.19 230.217 157.089 230.217C155.98 230.217 155.089 229.316 155.089 228.206M166.94 228.206C166.94 227.106 167.839 226.217 168.949 226.217C170.049 226.217 170.949 227.106 170.949 228.206C170.949 229.316 170.049 230.217 168.949 230.217C167.839 230.217 166.94 229.316 166.94 228.206M178.799 228.206C178.799 227.106 179.699 226.217 180.799 226.217C181.909 226.217 182.81 227.106 182.81 228.206C182.81 229.316 181.909 230.217 180.799 230.217C179.699 230.217 178.799 229.316 178.799 228.206M190.659 228.206C190.659 227.106 191.56 226.217 192.659 226.217C193.77 226.217 194.659 227.106 194.659 228.206C194.659 229.316 193.77 230.217 192.659 230.217C191.56 230.217 190.659 229.316 190.659 228.206M202.52 228.206C202.52 227.106 203.419 226.217 204.52 226.217C205.629 226.217 206.52 227.106 206.52 228.206C206.52 229.316 205.629 230.217 204.52 230.217C203.419 230.217 202.52 229.316 202.52 228.206M214.379 228.206C214.379 227.106 215.279 226.217 216.379 226.217C217.48 226.217 218.379 227.106 218.379 228.206C218.379 229.316 217.48 230.217 216.379 230.217C215.279 230.217 214.379 229.316 214.379 228.206M224.119 236.156C223.339 235.376 223.339 234.106 224.119 233.326C224.9 232.547 226.169 232.547 226.949 233.326C227.73 234.106 227.73 235.376 226.949 236.156C226.56 236.547 226.049 236.746 225.529 236.746C225.02 236.746 224.51 236.547 224.119 236.156M147.029 237.406C146.249 236.626 146.249 235.356 147.029 234.576C147.819 233.797 149.079 233.797 149.869 234.576C150.64 235.356 150.64 236.626 149.869 237.406C149.47 237.797 148.959 237.996 148.449 237.996C147.94 237.996 147.43 237.797 147.029 237.406M232.51 244.547C231.72 243.757 231.72 242.496 232.51 241.717C233.289 240.936 234.549 240.936 235.329 241.717C236.11 242.496 236.11 243.757 235.329 244.547C234.94 244.936 234.43 245.126 233.919 245.126C233.409 245.126 232.9 244.936 232.51 244.547M138.65 245.797C137.869 245.017 137.869 243.746 138.65 242.967C139.43 242.186 140.699 242.186 141.48 242.967C142.26 243.746 142.26 245.017 141.48 245.797C141.089 246.186 140.579 246.376 140.06 246.376C139.549 246.376 139.039 246.186 138.65 245.797M69.0996 249.666C69.0996 248.557 69.9886 247.656 71.0996 247.656C72.1986 247.656 73.0996 248.557 73.0996 249.666C73.0996 250.767 72.1986 251.666 71.0996 251.666C69.9886 251.666 69.0996 250.767 69.0996 249.666M80.9586 249.666C80.9586 248.557 81.8496 247.656 82.9586 247.656C84.0596 247.656 84.9586 248.557 84.9586 249.666C84.9586 250.767 84.0596 251.666 82.9586 251.666C81.8496 251.666 80.9586 250.767 80.9586 249.666M92.8186 249.666C92.8186 248.557 93.7086 247.656 94.8186 247.656C95.9186 247.656 96.8186 248.557 96.8186 249.666C96.8186 250.767 95.9186 251.666 94.8186 251.666C93.7086 251.666 92.8186 250.767 92.8186 249.666M104.68 249.666C104.68 248.557 105.569 247.656 106.68 247.656C107.779 247.656 108.669 248.557 108.669 249.666C108.669 250.767 107.779 251.666 106.68 251.666C105.569 251.666 104.68 250.767 104.68 249.666M116.539 249.666C116.539 248.557 117.43 247.656 118.529 247.656C119.64 247.656 120.529 248.557 120.529 249.666C120.529 250.767 119.64 251.666 118.529 251.666C117.43 251.666 116.539 250.767 116.539 249.666M128.39 249.666C128.39 248.557 129.289 247.656 130.39 247.656C131.499 247.656 132.39 248.557 132.39 249.666C132.39 250.767 131.499 251.666 130.39 251.666C129.289 251.666 128.39 250.767 128.39 249.666M240.4 251.276C240.4 250.177 241.299 249.276 242.409 249.276C243.51 249.276 244.4 250.177 244.4 251.276C244.4 252.387 243.51 253.276 242.409 253.276C241.299 253.276 240.4 252.387 240.4 251.276M252.26 251.276C252.26 250.177 253.159 249.276 254.26 249.276C255.369 249.276 256.26 250.177 256.26 251.276C256.26 252.387 255.369 253.276 254.26 253.276C253.159 253.276 252.26 252.387 252.26 251.276M264.119 251.276C264.119 250.177 265.02 249.276 266.119 249.276C267.22 249.276 268.119 250.177 268.119 251.276C268.119 252.387 267.22 253.276 266.119 253.276C265.02 253.276 264.119 252.387 264.119 251.276M275.98 251.276C275.98 250.177 276.879 249.276 277.98 249.276C279.089 249.276 279.98 250.177 279.98 251.276C279.98 252.387 279.089 253.276 277.98 253.276C276.879 253.276 275.98 252.387 275.98 251.276M287.839 251.276C287.839 250.177 288.739 249.276 289.839 249.276C290.94 249.276 291.839 250.177 291.839 251.276C291.839 252.387 290.94 253.276 289.839 253.276C288.739 253.276 287.839 252.387 287.839 251.276M299.699 251.276C299.699 250.177 300.6 249.276 301.699 249.276C302.799 249.276 303.699 250.177 303.699 251.276C303.699 252.387 302.799 253.276 301.699 253.276C300.6 253.276 299.699 252.387 299.699 251.276" fill="#A4DDD8"></path><path id="Fill 37" fill-rule="evenodd" clip-rule="evenodd" d="M313.561 253.277C313.29 253.277 313.031 253.227 312.79 253.127C312.55 253.027 312.331 252.877 312.141 252.687C311.96 252.507 311.811 252.287 311.71 252.048C311.611 251.807 311.561 251.548 311.561 251.277C311.561 251.147 311.571 251.017 311.601 250.887C311.621 250.757 311.661 250.637 311.71 250.517C311.761 250.397 311.821 250.277 311.891 250.167C311.971 250.057 312.05 249.957 312.141 249.867C312.241 249.777 312.34 249.687 312.451 249.617C312.561 249.548 312.67 249.487 312.79 249.437C312.911 249.387 313.04 249.347 313.17 249.317C313.42 249.267 313.691 249.267 313.951 249.317C314.081 249.347 314.201 249.387 314.321 249.437C314.441 249.487 314.561 249.548 314.67 249.617C314.781 249.687 314.88 249.777 314.971 249.867C315.061 249.957 315.151 250.057 315.221 250.167C315.29 250.277 315.351 250.397 315.401 250.517C315.451 250.637 315.491 250.757 315.521 250.887C315.54 251.017 315.561 251.147 315.561 251.277C315.561 251.548 315.511 251.807 315.411 252.048C315.311 252.287 315.161 252.507 314.971 252.687C314.781 252.877 314.561 253.027 314.321 253.127C314.081 253.227 313.821 253.277 313.561 253.277" fill="#A4DDD8"></path><path id="Fill 39" fill-rule="evenodd" clip-rule="evenodd" d="M63.0391 279.027C62.7791 279.027 62.5191 278.977 62.2791 278.877C62.0391 278.777 61.8191 278.627 61.6291 278.437C61.5391 278.347 61.4491 278.247 61.3791 278.137C61.3101 278.027 61.2391 277.917 61.1891 277.798C61.1401 277.677 61.1091 277.548 61.0791 277.417C61.0601 277.287 61.0391 277.157 61.0391 277.027C61.0391 276.897 61.0601 276.767 61.0791 276.637C61.1091 276.507 61.1491 276.387 61.1991 276.257C61.2491 276.137 61.3101 276.027 61.3791 275.917C61.4491 275.807 61.5391 275.707 61.6291 275.617C61.7201 275.517 61.8191 275.437 61.9301 275.367C62.0391 275.298 62.1591 275.227 62.2791 275.177C62.3991 275.127 62.5191 275.097 62.6491 275.067C62.9091 275.017 63.1801 275.017 63.4301 275.067C63.5601 275.097 63.6891 275.127 63.8101 275.177C63.9301 275.227 64.0391 275.298 64.1491 275.367C64.2601 275.437 64.3591 275.517 64.4491 275.617C64.5491 275.707 64.6291 275.807 64.6991 275.917C64.7791 276.027 64.8391 276.137 64.8901 276.257C64.9391 276.387 64.9791 276.507 64.9991 276.637C65.0291 276.767 65.0391 276.897 65.0391 277.027C65.0391 277.157 65.0291 277.287 64.9991 277.417C64.9791 277.548 64.9391 277.677 64.8901 277.798C64.8391 277.917 64.7791 278.027 64.7091 278.137C64.6291 278.247 64.5491 278.347 64.4491 278.437C64.3591 278.537 64.2601 278.617 64.1491 278.687C64.0391 278.767 63.9301 278.827 63.8101 278.877C63.6891 278.927 63.5601 278.967 63.4391 278.987C63.3101 279.017 63.1801 279.027 63.0391 279.027" fill="#A4DDD8"></path><path id="Fill 41" fill-rule="evenodd" clip-rule="evenodd" d="M73 277.027C73 275.927 73.9 275.027 75 275.027C76.101 275.027 77 275.927 77 277.027C77 278.137 76.101 279.027 75 279.027C73.9 279.027 73 278.137 73 277.027M84.96 277.027C84.96 275.927 85.851 275.027 86.96 275.027C88.061 275.027 88.96 275.927 88.96 277.027C88.96 278.137 88.061 279.027 86.96 279.027C85.851 279.027 84.96 278.137 84.96 277.027M96.91 277.027C96.91 275.927 97.811 275.027 98.91 275.027C100.021 275.027 100.92 275.927 100.92 277.027C100.92 278.137 100.021 279.027 98.91 279.027C97.811 279.027 96.91 278.137 96.91 277.027M108.87 277.027C108.87 275.927 109.771 275.027 110.87 275.027C111.98 275.027 112.87 275.927 112.87 277.027C112.87 278.137 111.98 279.027 110.87 279.027C109.771 279.027 108.87 278.137 108.87 277.027M120.83 277.027C120.83 275.927 121.721 275.027 122.83 275.027C123.931 275.027 124.83 275.927 124.83 277.027C124.83 278.137 123.931 279.027 122.83 279.027C121.721 279.027 120.83 278.137 120.83 277.027" fill="#A4DDD8"></path><path id="Fill 43" fill-rule="evenodd" clip-rule="evenodd" d="M134.789 279.027C134.249 279.027 133.749 278.817 133.369 278.437C132.989 278.067 132.779 277.557 132.779 277.027C132.779 276.497 132.999 275.987 133.369 275.617C133.829 275.147 134.529 274.937 135.18 275.067C135.299 275.088 135.43 275.127 135.549 275.177C135.669 275.227 135.789 275.287 135.89 275.367C135.999 275.437 136.109 275.517 136.199 275.617C136.289 275.707 136.369 275.807 136.449 275.917C136.519 276.027 136.579 276.137 136.629 276.257C136.68 276.387 136.72 276.507 136.749 276.637C136.769 276.767 136.789 276.897 136.789 277.027C136.789 277.557 136.579 278.067 136.199 278.437C136.109 278.537 135.999 278.617 135.89 278.697C135.789 278.767 135.669 278.827 135.549 278.877C135.43 278.927 135.31 278.967 135.18 278.987C135.049 279.007 134.919 279.027 134.789 279.027" fill="#A4DDD8"></path><path id="Fill 45" fill-rule="evenodd" clip-rule="evenodd" d="M147.668 264.137C146.889 263.357 146.889 262.097 147.668 261.317C148.448 260.527 149.719 260.527 150.498 261.317C151.278 262.097 151.278 263.357 150.498 264.137C150.108 264.527 149.599 264.727 149.078 264.727C148.568 264.727 148.059 264.527 147.668 264.137M140.519 271.286C139.738 270.507 139.738 269.246 140.519 268.467C141.298 267.677 142.568 267.677 143.349 268.467C144.128 269.246 144.128 270.507 143.349 271.286C142.958 271.677 142.448 271.876 141.929 271.876C141.418 271.876 140.908 271.677 140.519 271.286" fill="#A4DDD8"></path><path id="Fill 47" fill-rule="evenodd" clip-rule="evenodd" d="M156.23 257.577C155.97 257.577 155.709 257.527 155.47 257.428C155.23 257.327 155.01 257.178 154.82 256.997C154.73 256.897 154.64 256.798 154.57 256.687C154.5 256.577 154.43 256.468 154.379 256.348C154.33 256.227 154.299 256.098 154.27 255.968C154.25 255.848 154.23 255.707 154.23 255.577C154.23 255.048 154.45 254.537 154.82 254.167C154.91 254.067 155.01 253.987 155.12 253.917C155.23 253.848 155.35 253.777 155.47 253.727C155.589 253.678 155.72 253.647 155.839 253.617C156.1 253.567 156.37 253.567 156.629 253.617C156.75 253.647 156.879 253.678 157 253.727C157.12 253.777 157.24 253.848 157.339 253.917C157.45 253.987 157.56 254.067 157.65 254.167C158.02 254.537 158.23 255.048 158.23 255.577C158.23 255.707 158.22 255.848 158.2 255.968C158.169 256.098 158.129 256.227 158.08 256.348C158.03 256.468 157.97 256.577 157.9 256.687C157.82 256.798 157.74 256.897 157.65 256.997C157.459 257.178 157.24 257.327 157 257.428C156.76 257.527 156.5 257.577 156.23 257.577" fill="#A4DDD8"></path><path id="Fill 49" fill-rule="evenodd" clip-rule="evenodd" d="M165.869 255.577C165.869 254.468 166.76 253.577 167.869 253.577C168.97 253.577 169.869 254.468 169.869 255.577C169.869 256.678 168.97 257.577 167.869 257.577C166.76 257.577 165.869 256.678 165.869 255.577M177.499 255.577C177.499 254.468 178.399 253.577 179.499 253.577C180.599 253.577 181.499 254.468 181.499 255.577C181.499 256.678 180.599 257.577 179.499 257.577C178.399 257.577 177.499 256.678 177.499 255.577M189.14 255.577C189.14 254.468 190.029 253.577 191.14 253.577C192.239 253.577 193.14 254.468 193.14 255.577C193.14 256.678 192.239 257.577 191.14 257.577C190.029 257.577 189.14 256.678 189.14 255.577M200.769 255.577C200.769 254.468 201.669 253.577 202.769 253.577C203.879 253.577 204.769 254.468 204.769 255.577C204.769 256.678 203.879 257.577 202.769 257.577C201.669 257.577 200.769 256.678 200.769 255.577M212.399 255.577C212.399 254.468 213.299 253.577 214.409 253.577C215.51 253.577 216.399 254.468 216.399 255.577C216.399 256.678 215.51 257.577 214.409 257.577C213.299 257.577 212.399 256.678 212.399 255.577M222.559 261.968C221.779 261.187 221.779 259.917 222.559 259.138C223.349 258.357 224.609 258.357 225.39 259.138C226.169 259.917 226.169 261.187 225.39 261.968C224.999 262.357 224.489 262.557 223.979 262.557C223.47 262.557 222.949 262.357 222.559 261.968M230.789 270.197C230.01 269.417 230.01 268.147 230.789 267.367C231.569 266.588 232.839 266.588 233.619 267.367C234.399 268.147 234.399 269.417 233.619 270.197C233.229 270.588 232.72 270.777 232.199 270.777C231.689 270.777 231.18 270.588 230.789 270.197M239.019 278.417C238.229 277.638 238.229 276.377 239.019 275.588C239.799 274.807 241.069 274.807 241.849 275.588C242.629 276.377 242.629 277.638 241.849 278.417C241.459 278.807 240.939 279.008 240.43 279.008C239.919 279.008 239.409 278.807 239.019 278.417M249.39 278.647C249.39 277.537 250.279 276.647 251.39 276.647C252.489 276.647 253.39 277.537 253.39 278.647C253.39 279.747 252.489 280.647 251.39 280.647C250.279 280.647 249.39 279.747 249.39 278.647M261.019 278.647C261.019 277.537 261.919 276.647 263.019 276.647C264.119 276.647 265.019 277.537 265.019 278.647C265.019 279.747 264.119 280.647 263.019 280.647C261.919 280.647 261.019 279.747 261.019 278.647M272.659 278.647C272.659 277.537 273.549 276.647 274.649 276.647C275.76 276.647 276.659 277.537 276.659 278.647C276.659 279.747 275.76 280.647 274.649 280.647C273.549 280.647 272.659 279.747 272.659 278.647M284.289 278.647C284.289 277.537 285.18 276.647 286.289 276.647C287.399 276.647 288.289 277.537 288.289 278.647C288.289 279.747 287.399 280.647 286.289 280.647C285.18 280.647 284.289 279.747 284.289 278.647M295.919 278.647C295.919 277.537 296.819 276.647 297.93 276.647C299.029 276.647 299.919 277.537 299.919 278.647C299.919 279.747 299.029 280.647 297.93 280.647C296.819 280.647 295.919 279.747 295.919 278.647" fill="#A4DDD8"></path><path id="Fill 51" fill-rule="evenodd" clip-rule="evenodd" d="M309.561 280.647C309.29 280.647 309.04 280.597 308.79 280.497C308.55 280.397 308.331 280.247 308.141 280.057C307.96 279.867 307.811 279.647 307.71 279.407C307.611 279.167 307.561 278.907 307.561 278.647C307.561 278.517 307.571 278.387 307.601 278.257C307.621 278.126 307.661 277.997 307.71 277.876C307.761 277.757 307.821 277.647 307.901 277.537C307.971 277.427 308.05 277.327 308.141 277.227C308.241 277.137 308.34 277.057 308.451 276.987C308.561 276.907 308.67 276.847 308.79 276.797C308.92 276.747 309.04 276.707 309.17 276.687C309.431 276.626 309.691 276.626 309.951 276.687C310.081 276.707 310.201 276.747 310.321 276.797C310.441 276.847 310.561 276.907 310.67 276.987C310.781 277.057 310.88 277.137 310.971 277.227C311.061 277.327 311.151 277.427 311.221 277.537C311.29 277.647 311.361 277.757 311.411 277.876C311.46 277.997 311.491 278.126 311.521 278.257C311.55 278.387 311.561 278.517 311.561 278.647C311.561 278.907 311.511 279.167 311.411 279.407C311.311 279.647 311.161 279.867 310.971 280.057C310.88 280.157 310.781 280.237 310.67 280.307C310.561 280.376 310.441 280.447 310.321 280.497C310.21 280.547 310.081 280.577 309.951 280.607C309.821 280.626 309.691 280.647 309.561 280.647" fill="#A4DDD8"></path><path id="Fill 53" fill-rule="evenodd" clip-rule="evenodd" d="M150.434 172.906H73.4004C72.8474 172.906 72.4004 172.459 72.4004 171.906C72.4004 171.353 72.8474 170.906 73.4004 170.906H150.434C150.987 170.906 151.434 171.353 151.434 171.906C151.434 172.459 150.987 172.906 150.434 172.906" fill="#A4DDD8"></path><path id="Fill 55" fill-rule="evenodd" clip-rule="evenodd" d="M300.111 172.906H223.078C222.525 172.906 222.078 172.459 222.078 171.906C222.078 171.353 222.525 170.906 223.078 170.906H300.111C300.664 170.906 301.111 171.353 301.111 171.906C301.111 172.459 300.664 172.906 300.111 172.906" fill="#A4DDD8"></path><path id="Fill 57" fill-rule="evenodd" clip-rule="evenodd" d="M76.4297 165.887C76.4297 164.777 77.3287 163.887 78.4297 163.887C79.5387 163.887 80.4397 164.777 80.4397 165.887C80.4397 166.987 79.5387 167.887 78.4297 167.887C77.3287 167.887 76.4297 166.987 76.4297 165.887M88.4297 165.887C88.4297 164.777 89.3287 163.887 90.4297 163.887C91.5387 163.887 92.4297 164.777 92.4297 165.887C92.4297 166.987 91.5387 167.887 90.4297 167.887C89.3287 167.887 88.4297 166.987 88.4297 165.887M100.43 165.887C100.43 164.777 101.329 163.887 102.44 163.887C103.539 163.887 104.43 164.777 104.43 165.887C104.43 166.987 103.539 167.887 102.44 167.887C101.329 167.887 100.43 166.987 100.43 165.887M112.43 165.887C112.43 164.777 113.329 163.887 114.43 163.887C115.539 163.887 116.43 164.777 116.43 165.887C116.43 166.987 115.539 167.887 114.43 167.887C113.329 167.887 112.43 166.987 112.43 165.887M124.44 165.887C124.44 164.777 125.329 163.887 126.43 163.887C127.539 163.887 128.43 164.777 128.43 165.887C128.43 166.987 127.539 167.887 126.43 167.887C125.329 167.887 124.44 166.987 124.44 165.887M136.43 165.887C136.43 164.777 137.329 163.887 138.43 163.887C139.539 163.887 140.43 164.777 140.43 165.887C140.43 166.987 139.539 167.887 138.43 167.887C137.329 167.887 136.43 166.987 136.43 165.887M148.43 165.887C148.43 164.777 149.329 163.887 150.43 163.887C151.539 163.887 152.43 164.777 152.43 165.887C152.43 166.987 151.539 167.887 150.43 167.887C149.329 167.887 148.43 166.987 148.43 165.887" fill="#A4DDD8"></path><path id="Fill 59" fill-rule="evenodd" clip-rule="evenodd" d="M226.109 165.887C226.109 164.777 227.009 163.887 228.109 163.887C229.219 163.887 230.109 164.777 230.109 165.887C230.109 166.987 229.219 167.887 228.109 167.887C227.009 167.887 226.109 166.987 226.109 165.887M238.109 165.887C238.109 164.777 239.009 163.887 240.109 163.887C241.209 163.887 242.109 164.777 242.109 165.887C242.109 166.987 241.209 167.887 240.109 167.887C239.009 167.887 238.109 166.987 238.109 165.887M250.109 165.887C250.109 164.777 251.009 163.887 252.109 163.887C253.219 163.887 254.109 164.777 254.109 165.887C254.109 166.987 253.219 167.887 252.109 167.887C251.009 167.887 250.109 166.987 250.109 165.887M262.109 165.887C262.109 164.777 263.009 163.887 264.109 163.887C265.219 163.887 266.109 164.777 266.109 165.887C266.109 166.987 265.219 167.887 264.109 167.887C263.009 167.887 262.109 166.987 262.109 165.887M274.109 165.887C274.109 164.777 274.999 163.887 276.109 163.887C277.219 163.887 278.109 164.777 278.109 165.887C278.109 166.987 277.219 167.887 276.109 167.887C274.999 167.887 274.109 166.987 274.109 165.887M286.109 165.887C286.109 164.777 287.009 163.887 288.109 163.887C289.219 163.887 290.109 164.777 290.109 165.887C290.109 166.987 289.219 167.887 288.109 167.887C287.009 167.887 286.109 166.987 286.109 165.887M298.109 165.887C298.109 164.777 298.999 163.887 300.109 163.887C301.219 163.887 302.109 164.777 302.109 165.887C302.109 166.987 301.219 167.887 300.109 167.887C298.999 167.887 298.109 166.987 298.109 165.887" fill="#A4DDD8"></path><path id="Fill 61" fill-rule="evenodd" clip-rule="evenodd" d="M76.4297 179.797C76.4297 178.696 77.3287 177.797 78.4297 177.797C79.5387 177.797 80.4397 178.696 80.4397 179.797C80.4397 180.906 79.5387 181.797 78.4297 181.797C77.3287 181.797 76.4297 180.906 76.4297 179.797M88.4297 179.797C88.4297 178.696 89.3287 177.797 90.4297 177.797C91.5387 177.797 92.4297 178.696 92.4297 179.797C92.4297 180.906 91.5387 181.797 90.4297 181.797C89.3287 181.797 88.4297 180.906 88.4297 179.797M100.43 179.797C100.43 178.696 101.329 177.797 102.44 177.797C103.539 177.797 104.43 178.696 104.43 179.797C104.43 180.906 103.539 181.797 102.44 181.797C101.329 181.797 100.43 180.906 100.43 179.797M112.43 179.797C112.43 178.696 113.329 177.797 114.43 177.797C115.539 177.797 116.43 178.696 116.43 179.797C116.43 180.906 115.539 181.797 114.43 181.797C113.329 181.797 112.43 180.906 112.43 179.797M124.44 179.797C124.44 178.696 125.329 177.797 126.43 177.797C127.539 177.797 128.43 178.696 128.43 179.797C128.43 180.906 127.539 181.797 126.43 181.797C125.329 181.797 124.44 180.906 124.44 179.797M136.43 179.797C136.43 178.696 137.329 177.797 138.43 177.797C139.539 177.797 140.43 178.696 140.43 179.797C140.43 180.906 139.539 181.797 138.43 181.797C137.329 181.797 136.43 180.906 136.43 179.797M148.43 179.797C148.43 178.696 149.329 177.797 150.43 177.797C151.539 177.797 152.43 178.696 152.43 179.797C152.43 180.906 151.539 181.797 150.43 181.797C149.329 181.797 148.43 180.906 148.43 179.797" fill="#A4DDD8"></path><path id="Fill 63" fill-rule="evenodd" clip-rule="evenodd" d="M226.109 179.797C226.109 178.696 227.009 177.797 228.109 177.797C229.219 177.797 230.109 178.696 230.109 179.797C230.109 180.897 229.219 181.797 228.109 181.797C227.009 181.797 226.109 180.897 226.109 179.797M238.109 179.797C238.109 178.696 239.009 177.797 240.109 177.797C241.209 177.797 242.109 178.696 242.109 179.797C242.109 180.897 241.209 181.797 240.109 181.797C239.009 181.797 238.109 180.897 238.109 179.797M250.109 179.797C250.109 178.696 251.009 177.797 252.109 177.797C253.219 177.797 254.109 178.696 254.109 179.797C254.109 180.897 253.219 181.797 252.109 181.797C251.009 181.797 250.109 180.897 250.109 179.797M262.109 179.797C262.109 178.696 263.009 177.797 264.109 177.797C265.219 177.797 266.109 178.696 266.109 179.797C266.109 180.897 265.219 181.797 264.109 181.797C263.009 181.797 262.109 180.897 262.109 179.797M274.109 179.797C274.109 178.696 274.999 177.797 276.109 177.797C277.219 177.797 278.109 178.696 278.109 179.797C278.109 180.897 277.219 181.797 276.109 181.797C274.999 181.797 274.109 180.897 274.109 179.797M286.109 179.797C286.109 178.696 287.009 177.797 288.109 177.797C289.219 177.797 290.109 178.696 290.109 179.797C290.109 180.897 289.219 181.797 288.109 181.797C287.009 181.797 286.109 180.897 286.109 179.797M298.109 179.797C298.109 178.696 298.999 177.797 300.109 177.797C301.219 177.797 302.109 178.696 302.109 179.797C302.109 180.897 301.219 181.797 300.109 181.797C298.999 181.797 298.109 180.897 298.109 179.797" fill="#A4DDD8"></path></g></g></g><path id="Fill 40" fill-rule="evenodd" clip-rule="evenodd" d="M520.805 215.746C520.805 265.312 480.624 305.493 431.058 305.493C381.492 305.493 341.311 265.312 341.311 215.746C341.311 166.181 381.492 126 431.058 126C480.624 126 520.805 166.181 520.805 215.746" fill="#F9CD6B"></path><path id="Stroke 46" fill-rule="evenodd" clip-rule="evenodd" d="M741.569 425.785C741.569 449.966 721.966 469.569 697.785 469.569C673.603 469.569 654 449.966 654 425.785C654 401.603 673.603 382 697.785 382C721.966 382 741.569 401.603 741.569 425.785Z" fill="#F9CD6B"></path><path id="Stroke 50" fill-rule="evenodd" clip-rule="evenodd" d="M872.414 282.206C872.414 295.023 862.024 305.413 849.207 305.413C836.39 305.413 826 295.023 826 282.206C826 269.39 836.39 259 849.207 259C862.024 259 872.414 269.39 872.414 282.206Z" fill="#F9CD6B"></path><path id="Fill 81" fill-rule="evenodd" clip-rule="evenodd" d="M871 967.643C872.133 967.052 873.345 966.669 874.586 966.658C875.204 966.632 875.797 966.695 876.362 966.667C876.929 966.642 877.479 966.558 878.031 966.394C879.13 966.095 880.262 965.629 881.261 965.009C881.761 964.683 882.226 964.326 882.711 963.896C883.195 963.471 883.729 962.951 884.33 962.513C885.538 961.614 886.805 961.083 888.05 960.724C889.281 960.322 890.731 960.242 891.986 960.447C893.21 960.64 894.095 960.707 895.176 960.456C896.269 960.24 897.254 959.9 898.126 959.272C898.569 958.961 899.002 958.575 899.529 958.088C900.05 957.609 900.7 957.044 901.414 956.672C902.124 956.308 902.863 956.087 903.547 956.029C903.9 955.968 904.226 955.994 904.566 955.976C904.93 955.98 905.352 956.027 905.779 956.175C906.652 956.418 907.574 957.406 908.034 958.218C908.53 959.039 908.79 959.561 909.095 959.925C909.398 960.302 909.728 960.54 910.213 960.76C910.673 960.98 911.053 961.058 911.511 961.023C911.966 960.98 912.686 960.763 913.45 960.843C914.21 960.924 914.889 961.219 915.516 961.62C916.143 962.012 916.804 962.587 917.319 963.335C917.845 964.085 918.164 964.74 918.541 965.206C918.907 965.699 919.377 966.079 919.887 966.391C920.398 966.705 920.907 966.892 921.447 966.949C921.984 967 922.6 966.841 923.234 966.914C923.865 966.996 924.459 967.267 925 967.669C924.404 967.544 923.812 967.501 923.255 967.669C922.699 967.803 922.159 968.152 921.51 968.331C920.864 968.517 920.181 968.443 919.55 968.257C918.921 968.072 918.267 967.784 917.651 967.244C917.031 966.701 916.555 965.967 916.154 965.576C915.752 965.152 915.328 964.913 914.832 964.722C914.335 964.542 913.842 964.429 913.413 964.472C912.986 964.499 912.54 964.732 911.819 964.925C911.097 965.113 910.274 965.072 909.582 964.843C908.913 964.648 908.109 964.228 907.447 963.529C906.772 962.845 906.259 961.953 905.927 961.47C905.567 960.97 905.45 960.904 905.146 960.816C904.99 960.784 904.818 960.775 904.589 960.78C904.336 960.811 904.065 960.798 903.829 960.859C903.328 960.923 902.896 961.098 902.485 961.328C902.075 961.555 901.681 961.886 901.188 962.353C900.699 962.812 900.111 963.369 899.473 963.819C898.18 964.718 896.813 965.145 895.552 965.353C894.903 965.466 894.22 965.504 893.541 965.46C892.861 965.419 892.2 965.277 891.639 965.148C890.538 964.886 889.59 964.873 888.477 965.07C887.378 965.271 886.31 965.562 885.334 966.113C884.842 966.391 884.332 966.749 883.751 967.136C883.173 967.521 882.542 967.878 881.912 968.114C880.642 968.57 879.427 968.795 878.162 968.828C876.891 968.852 875.617 968.426 874.505 968.03C873.379 967.655 872.203 967.595 871 967.643" fill="#509FA6"></path></g></svg> 