<?xml version="1.0" encoding="UTF-8"?> <svg xmlns="http://www.w3.org/2000/svg" xmlns:xlink="http://www.w3.org/1999/xlink" viewBox="103.91379310344826 202.20000000000005 405.51724137931035 720.3375000000001" fill="none" overflow="visible" width="405.51724137931035px" height="720.3375000000001px"><g id="Master/Male Character/Floating"><g id="Floating Lower" transform="translate(-3 357) scale(1 1)"><g id="Floating Lower/Relaxed 2"><g id="Group 33"><path id="Fill 1" fill-rule="evenodd" clip-rule="evenodd" d="M231.455 497.441C271.768 452.26 273.254 438.093 319.706 386.744L354.175 431.402C337.873 449.421 285.206 488.422 275.473 504.898C265.413 521.925 293.367 541.597 294.511 555.102C294.764 558.088 292.379 560.801 290.534 562.428C289.256 563.556 287.593 564.16 285.891 564.083C280.897 563.858 275.976 561.43 269.173 555.226C244.035 532.297 224.494 505.989 224.494 505.989L231.455 497.441Z" fill="#FDCF3C"></path><path id="Fill 3" fill-rule="evenodd" clip-rule="evenodd" d="M120.45 479.344C168.569 442.587 173.134 428.431 228.445 386.775L262.126 431.423C242.717 446.04 174.937 480.636 162.269 494.978C149.175 509.8 172.912 534.395 171.486 547.873C171.17 550.854 168.316 553.068 166.197 554.317C164.729 555.183 162.982 555.462 161.325 555.065C156.464 553.902 152.089 550.588 146.58 543.211C126.222 515.949 112 486.424 112 486.424L120.45 479.344Z" fill="#FDCF3C"></path><path id="Fill 5" fill-rule="evenodd" clip-rule="evenodd" d="M118.755 480.765V480.765C118.755 480.765 145.597 529.205 152.923 537.47C160.24 545.723 167.229 549.338 171.112 549.287C170.221 551.555 167.963 553.275 166.197 554.317C164.729 555.183 162.982 555.462 161.325 555.065C156.463 553.902 152.088 550.588 146.58 543.211C126.223 515.95 112 486.424 112 486.424L118.755 480.765Z" fill="#FCAE3D"></path><path id="Fill 7" fill-rule="evenodd" clip-rule="evenodd" d="M118.755 480.765C122.872 479.155 127.24 478.535 131.629 478.454C136.02 478.406 140.492 479.023 144.812 480.53C146.96 481.319 149.067 482.333 151.014 483.664C152.953 484.993 154.758 486.629 156.124 488.61C157.504 490.57 158.468 492.798 158.925 495.065L159.152 496.775C159.221 497.338 159.188 497.914 159.18 498.476C159.21 499.593 158.959 500.708 158.753 501.774C157.949 499.7 157.196 497.782 156.159 496.085C155.112 494.402 153.914 492.939 152.548 491.687C149.831 489.165 146.411 487.526 142.79 486.177C139.125 484.894 135.227 483.936 131.205 483.137L118.755 480.765Z" fill="#FCAE3D"></path><path id="Fill 9" fill-rule="evenodd" clip-rule="evenodd" d="M230.058 499.156V499.156C230.058 499.156 265.563 541.658 274.318 548.39C283.061 555.113 290.607 557.344 294.411 556.561C293.963 558.957 292.072 561.072 290.534 562.428C289.256 563.556 287.593 564.16 285.891 564.083C280.897 563.858 275.975 561.43 269.173 555.226C244.034 532.298 224.493 505.989 224.493 505.989L230.058 499.156Z" fill="#FCAE3D"></path><path id="Fill 11" fill-rule="evenodd" clip-rule="evenodd" d="M230.059 499.156C233.798 496.798 237.971 495.364 242.266 494.457C246.568 493.58 251.077 493.342 255.603 494.006C257.861 494.375 260.121 494.973 262.286 495.913C264.44 496.851 266.522 498.118 268.237 499.804C269.962 501.469 271.33 503.475 272.207 505.615L272.752 507.252C272.927 507.791 273.002 508.363 273.101 508.916C273.341 510.008 273.305 511.151 273.304 512.236C272.123 510.35 271.021 508.609 269.683 507.138C268.337 505.683 266.885 504.472 265.306 503.502C262.163 501.539 258.495 500.574 254.684 499.932C250.843 499.365 246.834 499.161 242.733 499.135L230.059 499.156Z" fill="#FCAE3D"></path><g id="Group 15"><path id="Fill 13" fill-rule="evenodd" clip-rule="evenodd" d="M375.486 413.35C369.076 426.991 353.987 431.6 353.987 431.6L319.537 386.951L320.067 384.13H320.047C313.717 338.201 315.057 288.06 315.447 277.21C313.557 277.46 311.647 277.58 309.757 277.57C305.147 277.491 300.527 276.741 296.347 274.8C296.297 279.8 295.517 323.23 283.947 384.13H284.077C284.077 384.13 287.447 401.741 281.307 412.871C275.197 423.93 261.827 431.6 261.827 431.6L228.237 386.951L228.651 384.265L228.637 384.13C220.707 278.01 234.947 213.73 234.947 213.72L243.647 160.871C243.647 160.871 261.647 146 306.567 146C351.477 146 365.346 160.871 365.346 160.871L373.337 214.6L373.346 214.701C373.346 214.701 373.347 214.71 373.337 214.71C373.597 218.121 380.347 308 376.307 384.13H376.236C376.236 384.13 382.176 399.1 375.486 413.35" fill="#E35A38"></path></g><path id="Fill 16" fill-rule="evenodd" clip-rule="evenodd" d="M296.348 274.797C300.886 274.28 305.17 273.691 309.355 272.881C313.528 272.064 317.576 271.042 321.434 269.602C325.302 268.182 328.989 266.388 332.494 264.13C336.032 261.897 339.285 259.139 342.729 256.103C341.399 260.486 338.828 264.528 335.452 267.805C332.079 271.095 327.93 273.625 323.501 275.233C319.075 276.875 314.378 277.594 309.761 277.566C305.15 277.486 300.531 276.744 296.348 274.797" fill="#BF432B"></path><path id="Fill 21" fill-rule="evenodd" clip-rule="evenodd" d="M216.372 394.957C216.13 394.54 216.663 394.112 217.018 394.438C220.318 397.464 223.388 400.675 226.397 403.934C229.949 407.822 233.362 411.822 236.656 415.919C239.952 420.014 243.122 424.209 246.156 428.515C248.694 432.158 251.169 435.853 253.412 439.734C253.653 440.15 253.121 440.578 252.766 440.253C249.458 437.228 246.384 434.015 243.372 430.751C239.821 426.861 236.408 422.861 233.118 418.762C229.828 414.662 226.657 410.468 223.624 406.161C221.09 402.52 218.616 398.831 216.372 394.957" fill="#FCAE3D"></path><path id="Fill 23" fill-rule="evenodd" clip-rule="evenodd" d="M205.974 402.399C205.732 401.982 206.265 401.555 206.62 401.88C209.92 404.906 212.99 408.117 215.999 411.376C219.551 415.264 222.964 419.265 226.258 423.361C229.554 427.456 232.724 431.651 235.757 435.957C238.296 439.6 240.771 443.295 243.014 447.176C243.255 447.592 242.723 448.02 242.368 447.695C239.06 444.67 235.986 441.457 232.974 438.193C229.423 434.303 226.01 430.303 222.72 426.204C219.43 422.104 216.259 417.91 213.226 413.604C210.692 409.962 208.218 406.274 205.974 402.399" fill="#FCAE3D"></path><path id="Fill 25" fill-rule="evenodd" clip-rule="evenodd" d="M194.06 409.884C193.818 409.467 194.351 409.039 194.706 409.365C198.006 412.391 201.076 415.601 204.085 418.86C207.637 422.749 211.05 426.749 214.344 430.845C217.639 434.941 220.81 439.136 223.843 443.442C226.382 447.085 228.857 450.78 231.1 454.66C231.341 455.077 230.809 455.505 230.454 455.18C227.146 452.154 224.072 448.942 221.06 445.677C217.509 441.788 214.096 437.788 210.806 433.689C207.516 429.589 204.345 425.395 201.312 421.088C198.778 417.447 196.304 413.758 194.06 409.884" fill="#FCAE3D"></path><path id="Fill 27" fill-rule="evenodd" clip-rule="evenodd" d="M308.005 398.512C307.74 398.109 308.248 397.653 308.621 397.957C312.085 400.793 315.33 403.827 318.517 406.912C322.281 410.596 325.913 414.4 329.431 418.304C332.95 422.208 336.351 426.219 339.621 430.349C342.359 433.844 345.037 437.395 347.494 441.144C347.757 441.547 347.251 442.003 346.878 441.699C343.406 438.863 340.156 435.827 336.967 432.737C333.204 429.053 329.572 425.25 326.058 421.341C322.543 417.432 319.142 413.422 315.873 409.292C313.139 405.799 310.462 402.254 308.005 398.512" fill="#FCAE3D"></path><path id="Fill 29" fill-rule="evenodd" clip-rule="evenodd" d="M299.794 408.519C299.53 408.117 300.037 407.66 300.41 407.965C303.874 410.801 307.119 413.834 310.306 416.92C314.07 420.604 317.702 424.407 321.22 428.312C324.74 432.216 328.141 436.227 331.41 440.357C334.148 443.852 336.827 447.402 339.283 451.152C339.547 451.554 339.04 452.011 338.667 451.707C335.196 448.871 331.946 445.834 328.757 442.745C324.993 439.06 321.361 435.257 317.847 431.348C314.333 427.44 310.931 423.429 307.662 419.3C304.928 415.807 302.251 412.262 299.794 408.519" fill="#FCAE3D"></path><path id="Fill 31" fill-rule="evenodd" clip-rule="evenodd" d="M289.314 417.999C289.05 417.597 289.557 417.14 289.93 417.445C293.395 420.281 296.639 423.314 299.826 426.4C303.59 430.084 307.222 433.887 310.74 437.792C314.26 441.696 317.661 445.707 320.93 449.837C323.668 453.332 326.347 456.882 328.803 460.632C329.067 461.034 328.56 461.491 328.187 461.187C324.716 458.351 321.466 455.314 318.277 452.225C314.513 448.541 310.881 444.737 307.367 440.828C303.853 436.92 300.451 432.909 297.182 428.78C294.448 425.287 291.772 421.742 289.314 417.999" fill="#FCAE3D"></path></g></g></g><g id="Male Upper" transform="translate(69 0) scale(1 1)"><g id="Male Upper/Thumbs Up 1"><path id="Fill 45" opacity="0.457137" fill-rule="evenodd" clip-rule="evenodd" d="M303.98 520.118L157.379 520.155V494.393H303.98V520.118Z" fill="#2DD3DD"></path><path id="Fill 25" fill-rule="evenodd" clip-rule="evenodd" d="M292.816 520.249L171.134 520.27V505.422H292.816V520.249Z" fill="#DB1480"></path><path id="Fill 45_2" opacity="0.457137" fill-rule="evenodd" clip-rule="evenodd" d="M303.98 520.118L157.379 520.155V494.393H303.98V520.118Z" fill="#2DD3DD"></path><path id="Fill 25_2" fill-rule="evenodd" clip-rule="evenodd" d="M292.816 520.249L171.134 520.27V505.422H292.816V520.249Z" fill="#DB1480"></path><g id="Group 28"><g id="Group 3"><path id="Fill 1" fill-rule="evenodd" clip-rule="evenodd" d="M125.314 478.312C134.327 464.845 152.583 439.455 160.893 422.869C167.236 455.799 169.788 474.11 170.813 483.522L125.314 478.312ZM382.177 357.228L356.41 434.283C346.686 411.734 335.342 388.787 320.654 369.051C307.923 351.945 297.413 349.622 276.17 347.103C250.336 344.038 224.189 343.618 198.268 345.83C183.564 347.084 161.45 346.861 148.08 353.484C140.231 357.371 134.751 366.943 129.815 374.139C110.832 401.816 95.3049 432.373 81.2839 462.832C81.2839 462.832 67.3089 484.46 73.6509 499.537C81.2839 517.684 104.256 517.684 104.256 517.684L224.034 525.247L220.503 492.18H293.186C293.805 490.218 298.922 428.815 299.552 421.232C306.939 438.215 333.704 478.346 333.704 478.346C333.704 478.346 340.86 492.362 356.878 492.297C376.199 492.218 382.955 473.833 382.955 473.833L410.412 365.18L382.177 357.228Z" fill="#E35A38"></path></g><path id="Fill 4" fill-rule="evenodd" clip-rule="evenodd" d="M356.41 434.282C357.238 438.027 357.667 441.773 357.977 445.518C358.271 449.263 358.407 453.009 358.409 456.754C358.413 460.5 358.276 464.245 357.983 467.99C357.674 471.736 357.243 475.481 356.41 479.226C355.577 475.481 355.146 471.736 354.837 467.99C354.544 464.245 354.407 460.5 354.411 456.754C354.413 453.009 354.549 449.263 354.843 445.518C355.153 441.773 355.582 438.027 356.41 434.282" fill="#BF432B"></path><path id="Fill 6" fill-rule="evenodd" clip-rule="evenodd" d="M299.552 349.831L269.268 343.455L269.265 343.445L256.754 340.473C245.062 335.904 242.129 332.619 230.567 332.619C220.187 332.619 204.723 340.184 204.723 340.184C204.723 340.184 160.497 342.675 150.944 349.387C168.247 366.785 168.247 401.464 160.513 420.904L252.13 460.253L299.615 420.464C299.615 420.464 305.718 381.427 299.552 349.831" fill="#FDCF3C"></path><path id="Fill 8" fill-rule="evenodd" clip-rule="evenodd" d="M271.678 378.675H293.806V375.703H271.678V378.675Z" fill="#035A63"></path><path id="Fill 10" fill-rule="evenodd" clip-rule="evenodd" d="M271.677 385.28H293.805V382.308H271.677V385.28Z" fill="#035A63"></path><path id="Fill 11" fill-rule="evenodd" clip-rule="evenodd" d="M261.376 499.6C261.376 505.067 256.024 509.499 249.422 509.499C242.82 509.499 237.468 505.067 237.468 499.6C237.468 494.133 242.82 489.701 249.422 489.701C256.024 489.701 261.376 494.133 261.376 499.6" fill="#FDCF3C"></path><path id="Fill 12" fill-rule="evenodd" clip-rule="evenodd" d="M245.393 490.726L260.916 444.653L320.861 452.91C326.13 453.784 324.477 458.689 324.477 458.689L295.051 546.029C295.051 546.029 293.65 550.186 288.424 549.185L232.809 541.524C230.561 541.215 229.15 538.936 229.875 536.786L233.494 526.044L245.393 490.726Z" fill="#CADBDA"></path><path id="Stroke 13 (Stroke)" fill-rule="evenodd" clip-rule="evenodd" d="M271.975 446.111C272.236 446.199 272.377 446.483 272.289 446.744L257.266 491.335C257.178 491.597 256.894 491.738 256.632 491.65C256.371 491.562 256.23 491.278 256.318 491.016L271.341 446.425C271.429 446.164 271.713 446.023 271.975 446.111Z" fill="#A4BAB9"></path><path id="Stroke 14 (Stroke)" fill-rule="evenodd" clip-rule="evenodd" d="M284.378 467.541L305.132 470.399L308.118 477.906L317.467 479.193L317.33 480.184L307.405 478.817L304.418 471.31L284.685 468.592L277.502 474.698L262.732 472.664L262.869 471.673L277.195 473.647L284.378 467.541Z" fill="#A4BAB9"></path><path id="Fill 15" fill-rule="evenodd" clip-rule="evenodd" d="M249.451 478.683L246.225 478.105C245.39 477.955 244.727 477.315 244.55 476.484L240.436 457.222C240.358 456.855 240.379 456.474 240.499 456.118L244.548 444.1C244.869 443.148 245.822 442.559 246.817 442.697L260.917 444.652L249.451 478.683Z" fill="#A4BAB9"></path><path id="Stroke 16 (Stroke)" fill-rule="evenodd" clip-rule="evenodd" d="M245.522 444.76C245.522 444.76 245.522 444.76 245.522 444.76L241.473 456.778C241.382 457.048 241.365 457.338 241.425 457.618C241.425 457.618 241.425 457.618 241.425 457.618L245.539 476.88C245.673 477.511 246.177 477.999 246.813 478.113C246.813 478.113 246.813 478.113 246.813 478.113L249.615 478.615L260.75 445.565L247.248 443.693C246.491 443.587 245.766 444.036 245.522 444.76ZM247.385 442.702C246.153 442.531 244.972 443.261 244.574 444.44L240.525 456.459C240.525 456.459 240.525 456.459 240.525 456.459C240.376 456.9 240.35 457.372 240.447 457.826L244.561 477.088C244.561 477.088 244.561 477.089 244.561 477.088C244.78 478.119 245.602 478.912 246.636 479.097L250.287 479.751L262.083 444.74L247.385 442.702C247.385 442.702 247.385 442.702 247.385 442.702Z" fill="#A4BAB9"></path><path id="Stroke 17 (Stroke)" fill-rule="evenodd" clip-rule="evenodd" d="M261.576 444.679C261.838 444.767 261.979 445.051 261.891 445.312L246.368 491.385C246.279 491.647 245.996 491.788 245.734 491.7C245.472 491.612 245.332 491.328 245.42 491.066L260.943 444.993C261.031 444.732 261.315 444.591 261.576 444.679Z" fill="#A4BAB9"></path><path id="Fill 18" fill-rule="evenodd" clip-rule="evenodd" d="M229.21 490.726C229.21 490.726 238.239 482.892 247.487 482.914L244.843 490.676C258.494 492.327 274.898 485.734 275.669 491.001C276.439 496.269 253.065 500.256 253.065 500.256C262.898 503.607 275.717 499.081 275.669 503.937C275.614 509.442 250.788 509.607 250.788 509.607C258.054 512.854 274.568 509.388 274.678 514.175C274.788 518.964 250.513 519.185 250.513 519.185C259.54 523.038 272.565 519.638 272.676 523.809C272.786 527.979 253.1 531.79 224.25 523.809L229.21 490.726Z" fill="#18484C"></path><path id="Fill 19" fill-rule="evenodd" clip-rule="evenodd" d="M220.968 489.264C220.968 489.264 222.167 485.859 225.687 486.322C229.871 486.873 229.21 490.726 229.21 490.726L224.034 525.247C224.034 525.247 222.935 529.038 218.751 528.267C215.519 527.672 215.465 523.808 215.465 523.808L220.968 489.264Z" fill="#16494C"></path><path id="Fill 20" fill-rule="evenodd" clip-rule="evenodd" d="M94.4805 467.54C97.0155 468.234 99.5435 468.946 102.06 469.69C104.582 470.419 107.085 471.202 109.599 471.955L117.107 474.307C119.613 475.081 122.095 475.921 124.589 476.728L124.246 476.648C128.299 476.976 132.345 477.362 136.389 477.762L142.457 478.35L148.517 479.007C156.601 479.849 164.668 480.842 172.735 481.828L184.823 483.428L196.893 485.18C204.933 486.412 212.965 487.707 220.967 489.264C212.82 488.971 204.703 488.418 196.593 487.8L184.439 486.779L172.303 485.605C164.221 484.742 156.139 483.886 148.074 482.879L142.022 482.149L135.978 481.351C131.948 480.826 127.919 480.287 123.897 479.691L123.672 479.658L123.554 479.611C121.116 478.647 118.666 477.715 116.241 476.717L108.953 473.755C106.534 472.736 104.105 471.747 101.696 470.705C99.2805 469.678 96.8775 468.617 94.4805 467.54" fill="#BF432B"></path><path id="Fill 21" fill-rule="evenodd" clip-rule="evenodd" d="M409.512 372.477L379.726 364.123C377.802 363.583 377.23 361.725 377.769 359.801C378.309 357.877 380.325 356.744 382.249 357.284L411.474 365.481C413.398 366.021 414.531 368.036 413.991 369.96V369.96C413.452 371.884 411.436 373.017 409.512 372.477" fill="#16494C"></path><path id="Fill 22" fill-rule="evenodd" clip-rule="evenodd" d="M411.842 365.583C411.842 365.583 418.89 363 420.924 360.977C422.571 359.338 423.929 357.322 424.531 355.097C425.186 355.106 425.841 355.091 426.495 355.048C428.76 354.9 431.114 354.363 432.808 352.851C434.502 351.34 435.288 348.642 434.083 346.718C433.696 346.101 433.145 345.611 432.544 345.223C433.62 345.301 434.599 344.595 435.318 343.791C435.759 343.298 436.148 342.747 436.365 342.124C436.583 341.5 436.617 340.796 436.362 340.187C435.998 339.316 435.129 338.778 434.285 338.356C433.869 338.148 433.437 337.952 432.988 337.838C433.039 337.806 433.068 337.788 433.068 337.788C434.834 336.702 436.038 334.519 435.488 332.519C435.11 331.143 433.984 330.07 432.713 329.422C431.962 329.04 431.16 328.785 430.34 328.583C432.19 328.156 433.502 325.89 433.142 323.915C432.722 321.612 430.745 319.89 428.637 318.874C422.136 315.74 414.474 317.739 407.429 319.303C406.653 319.475 405.841 319.641 405.072 319.441C403.797 319.109 402.96 317.825 402.716 316.53C402.471 315.235 402.695 313.905 402.843 312.595C403.463 307.107 402.721 301.47 400.702 296.329C400.025 294.605 399.176 292.894 397.815 291.638C396.454 290.382 394.488 289.652 392.709 290.168C390.651 290.765 389.331 292.871 388.974 294.984C388.617 297.097 389.029 299.254 389.352 301.372C391.092 312.782 390.25 324.578 386.906 335.625C384.988 341.964 382.309 350.607 382.177 357.228L411.842 365.583Z" fill="#16494C"></path><path id="Fill 23" fill-rule="evenodd" clip-rule="evenodd" d="M430.34 328.583C427.021 329.952 423.494 330.739 419.92 331.217C418.127 331.453 416.31 331.545 414.459 331.464C413.532 331.415 412.599 331.291 411.657 331.069C410.721 330.832 409.748 330.504 408.862 329.808C407.974 329.127 407.342 327.899 407.352 326.758C407.271 325.532 408.064 324.283 408.942 323.713C409.825 323.093 410.753 322.763 411.665 322.508C412.58 322.254 413.495 322.11 414.407 322.015C418.046 321.657 421.644 321.912 425.164 322.568C421.599 322.741 418.044 322.935 414.637 323.559C412.977 323.909 411.225 324.331 410.087 325.222C409.53 325.673 409.276 326.126 409.305 326.7C409.336 327.346 409.601 327.832 410.114 328.249C411.172 329.109 412.945 329.414 414.6 329.581C416.296 329.76 418.042 329.716 419.79 329.668C423.29 329.491 426.818 329.149 430.34 328.583" fill="#CADBDA"></path><path id="Fill 24" fill-rule="evenodd" clip-rule="evenodd" d="M432.238 353.305C431.071 354.289 429.585 354.782 428.163 355.267C426.714 355.704 425.234 356.049 423.729 356.258C422.226 356.498 420.698 356.573 419.148 356.546C417.6 356.474 416.02 356.292 414.436 355.59C413.665 355.22 412.853 354.648 412.349 353.74C412.09 353.3 411.961 352.783 411.916 352.292C411.872 351.786 411.947 351.204 412.183 350.744C412.63 349.783 413.378 349.235 414.07 348.787C414.777 348.343 415.514 348.04 416.254 347.792C419.209 346.826 422.225 346.533 425.227 346.609C422.334 347.353 419.437 348.091 416.828 349.243C416.187 349.542 415.571 349.874 415.037 350.248C414.514 350.623 414.058 351.073 413.921 351.498C413.834 351.711 413.817 351.894 413.839 352.122C413.873 352.366 413.925 352.59 414.054 352.785C414.282 353.183 414.731 353.529 415.295 353.786C416.422 354.331 417.85 354.544 419.255 354.661C420.675 354.789 422.125 354.761 423.58 354.711C425.034 354.64 426.496 354.517 427.949 354.314C429.399 354.098 430.867 353.895 432.238 353.305" fill="#CADBDA"></path><path id="Fill 25_3" fill-rule="evenodd" clip-rule="evenodd" d="M432.545 345.223C429.677 346.438 426.62 347.107 423.548 347.58C420.464 348.017 417.328 348.261 414.084 347.689C413.275 347.515 412.457 347.288 411.646 346.869C410.859 346.464 409.98 345.748 409.652 344.677C409.358 343.601 409.513 342.659 409.931 341.761C410.37 340.871 411.121 340.216 411.896 339.821C413.456 338.999 415.09 338.842 416.662 338.794C418.241 338.789 419.8 338.941 421.311 339.306C419.764 339.383 418.235 339.499 416.753 339.772C415.285 340.029 413.808 340.427 412.695 341.162C412.139 341.529 411.741 341.994 411.521 342.499C411.305 342.99 411.288 343.684 411.446 344.072C411.7 344.919 413.108 345.489 414.478 345.729C415.871 346.027 417.37 346.095 418.864 346.123C420.363 346.171 421.876 346.089 423.394 346.033C426.43 345.858 429.482 345.633 432.545 345.223" fill="#CADBDA"></path><path id="Fill 26" fill-rule="evenodd" clip-rule="evenodd" d="M432.987 337.838C431.557 338.472 430.025 338.816 428.511 339.164C426.987 339.477 425.451 339.735 423.903 339.91C420.809 340.274 417.677 340.388 414.514 340.082C412.937 339.882 411.344 339.641 409.771 339C408.997 338.667 408.205 338.263 407.53 337.568C407.365 337.395 407.217 337.189 407.067 336.997C406.933 336.787 406.823 336.55 406.714 336.323C406.638 336.079 406.583 335.826 406.53 335.579L406.505 334.91C406.456 334.473 406.581 334.003 406.655 333.556C406.823 333.12 406.972 332.663 407.288 332.311C407.857 331.575 408.639 331.083 409.427 330.826C411.015 330.321 412.623 330.311 414.154 330.594C412.619 330.747 411.083 331.053 409.817 331.727C408.529 332.391 407.837 333.535 408.064 334.832L408.127 335.314L408.264 335.679C408.344 335.787 408.394 335.904 408.473 336.012C408.574 336.112 408.654 336.221 408.759 336.319C409.185 336.715 409.81 337.008 410.46 337.236C411.764 337.718 413.25 337.943 414.725 338.094C417.694 338.422 420.748 338.402 423.796 338.359C426.848 338.263 429.917 338.205 432.987 337.838" fill="#CADBDA"></path><path id="Fill 27" fill-rule="evenodd" clip-rule="evenodd" d="M410.412 365.18C407.953 364.92 405.548 364.471 403.162 363.954C400.771 363.45 398.413 362.833 396.061 362.194C393.719 361.519 391.383 360.82 389.079 360.009C386.772 359.21 384.484 358.343 382.249 357.284C384.708 357.541 387.114 357.99 389.501 358.507C391.89 359.012 394.249 359.628 396.6 360.27C398.942 360.947 401.277 361.646 403.581 362.458C405.888 363.257 408.177 364.124 410.412 365.18" fill="#CADBDA"></path></g></g></g><g id="Male Head" transform="translate(168 157) scale(1 1)"><g id="Male Head/Cover 1"><g id="Head"><path id="Fill 1" fill-rule="evenodd" clip-rule="evenodd" d="M77.6559 188.382L77.6519 188.376C77.6479 188.376 77.6429 188.375 77.6389 188.375C76.3729 191.183 76.5449 194.87 78.1349 197.258C127.345 205.385 162.685 202.814 189.706 198.118C192.377 196.219 193.153 190.77 191.647 188.382C162.107 193.085 117.85 194.072 77.6559 188.382" fill="#E35A38"></path><g id="Group 5"><path id="Fill 3" fill-rule="evenodd" clip-rule="evenodd" d="M189.702 198.119C162.729 202.806 127.466 205.373 78.3917 197.299C78.1987 197.295 78.0937 197.293 78.0937 197.293C78.0937 197.293 75.5267 201.774 79.1597 205.408C123.575 216.082 173.556 210.97 189.74 205.408C192.058 201.169 189.74 198.118 189.74 198.118C189.74 198.118 189.715 198.118 189.702 198.119" fill="#E35A38"></path></g><g id="Group 8"><path id="Fill 6" fill-rule="evenodd" clip-rule="evenodd" d="M141.511 48.0818C183.245 49.7328 213.951 85.5128 213.951 125.879C213.951 152.228 202.181 176.489 191.647 188.382C161.612 193.155 117.851 194.072 77.6565 188.382C58.0705 168.642 52.9995 149.064 52.9995 126.879C52.9995 88.6838 85.6285 45.8708 141.511 48.0818" fill="#CADBDA"></path></g><path id="Fill 9" fill-rule="evenodd" clip-rule="evenodd" d="M197.743 94.7654C199.266 97.2774 200.395 100.019 201.363 102.802C202.317 105.593 203.07 108.458 203.646 111.361C204.171 114.269 204.629 117.203 204.798 120.161C204.945 121.637 204.944 123.119 205.019 124.6C205.035 126.08 204.982 127.562 204.966 129.043L202.036 128.913C202.133 126.044 202.208 123.172 202.118 120.3L202.038 118.146L201.89 115.995C201.826 114.557 201.639 113.131 201.504 111.696C201.148 108.839 200.701 105.987 200.091 103.158C199.472 100.33 198.752 97.5144 197.743 94.7654" fill="white"></path><path id="Fill 11" fill-rule="evenodd" clip-rule="evenodd" d="M204.096 138.43C203.671 141.359 203.096 144.264 202.365 147.127C201.664 149.997 200.795 152.823 199.816 155.601C198.843 158.382 197.72 161.107 196.491 163.775C195.255 166.44 193.906 169.048 192.408 171.567C193.389 168.805 194.358 166.055 195.255 163.289C196.157 160.526 196.977 157.744 197.738 154.954C198.492 152.162 199.147 149.35 199.741 146.531C200.304 143.705 200.793 140.868 201.189 138.021L204.096 138.43Z" fill="white"></path><path id="Fill 13" fill-rule="evenodd" clip-rule="evenodd" d="M77.7354 198.704C99.3074 202.797 121.299 204.658 143.252 204.26C156.652 204.016 170.082 202.987 183.316 200.827C185.585 200.457 187.861 200.075 190.104 199.564C191.985 199.137 191.189 196.243 189.306 196.672C182.797 198.153 176.09 198.967 169.461 199.667C152.19 201.492 134.744 201.769 117.414 200.686C104.365 199.872 91.3784 198.248 78.5334 195.811C76.6464 195.453 75.8384 198.344 77.7354 198.704" fill="#8A1B64" fill-opacity="0.35189"></path><path id="Fill 15" fill-rule="evenodd" clip-rule="evenodd" d="M103.727 131.773C104.585 144.346 101.325 154.809 96.4463 155.142C91.5663 155.475 86.9153 145.552 86.0573 132.979C85.1983 120.407 88.4583 109.944 93.3383 109.611C98.2173 109.278 102.869 119.201 103.727 131.773" fill="#16494C"></path><path id="Fill 17" fill-rule="evenodd" clip-rule="evenodd" d="M151.759 93.9227C127.484 93.9227 115.209 116.758 115.209 142.752C115.209 179.51 143.664 191.879 155.059 191.879C166.453 191.879 174.541 176.522 176.983 165.653C178.55 158.685 178.201 151.442 178.957 144.339C179.735 137.038 181.686 129.798 181.217 122.472C180.454 110.567 171.796 93.9227 151.759 93.9227" fill="#7d7d6f"></path><path id="Fill 19" fill-rule="evenodd" clip-rule="evenodd" d="M138.438 71.0692C118.787 71.0692 103.989 83.6602 97.3738 97.0012C95.5168 100.746 94.3338 105.053 93.6348 109.61C98.4048 109.688 102.887 119.456 103.728 131.773C104.563 144.017 101.493 154.256 96.8258 155.091C98.3458 165.856 99.7088 178.511 100.344 190.852C100.485 190.915 100.628 190.967 100.77 191.029C118.924 192.395 137.119 192.575 153.743 191.824C141.624 190.94 115.209 178.171 115.209 142.752C115.209 116.757 127.484 93.9232 151.759 93.9232C169.948 93.9232 178.759 107.636 180.801 119.072C182.502 97.5262 166.792 71.0692 138.438 71.0692" fill="#16494C"></path><path id="Fill 21" fill-rule="evenodd" clip-rule="evenodd" d="M93.3384 109.611C94.4294 109.432 95.5874 109.826 96.5094 110.469C97.4544 111.103 98.2184 111.954 98.9104 112.835C100.253 114.638 101.246 116.66 102.028 118.736C103.606 122.899 104.391 127.3 104.724 131.706C104.995 136.115 104.815 140.582 103.819 144.921C103.325 147.085 102.616 149.223 101.53 151.192C100.964 152.16 100.322 153.105 99.4724 153.862C98.6454 154.625 97.5514 155.173 96.4454 155.142C97.5344 154.952 98.4144 154.278 99.0744 153.476C99.7434 152.67 100.242 151.729 100.65 150.758C101.468 148.81 101.943 146.719 102.287 144.622C102.601 142.514 102.814 140.387 102.858 138.251C102.93 136.116 102.886 133.975 102.73 131.841C102.446 127.576 101.772 123.325 100.557 119.239C99.9314 117.208 99.1774 115.201 98.1014 113.382C97.5654 112.475 96.9424 111.612 96.1704 110.903C95.4064 110.198 94.4424 109.651 93.3384 109.611" fill="#6D9E9E"></path></g></g></g><g id="Expression" transform="translate(165 154) scale(1 1)"><g id="Expression/Content"><g id="Face 1"><path id="Fill 17" fill-rule="evenodd" clip-rule="evenodd" d="M128.616 124.538C130.017 122.254 132.483 120.597 135.174 120.32C138.034 120.027 140.832 121.184 142.751 123.296C144.053 124.727 146.169 122.601 144.872 121.175C142.4 118.453 138.6 116.934 134.928 117.347C131.249 117.761 127.961 119.87 126.025 123.024C125.013 124.674 127.607 126.183 128.616 124.538" fill="#16494C"></path><path id="Fill 19" fill-rule="evenodd" clip-rule="evenodd" d="M172.591 122.131C170.858 119.877 168.251 118.427 165.364 118.444C162.483 118.462 159.879 119.939 158.178 122.215C157.694 122.864 158.073 123.891 158.717 124.267C159.483 124.715 160.283 124.38 160.769 123.729C162.981 120.768 167.739 120.704 170.001 123.646C170.494 124.286 171.291 124.629 172.053 124.184C172.684 123.815 173.088 122.777 172.591 122.131" fill="#16494C"></path><path id="Fill 21" fill-rule="evenodd" clip-rule="evenodd" d="M163.611 167.541C164.307 165.893 164.692 164.081 164.692 162.18H137.104C137.104 164.081 137.489 165.893 138.185 167.541H163.611Z" fill="#FFFCF8"></path><path id="Fill 23" fill-rule="evenodd" clip-rule="evenodd" d="M138.185 167.541C140.277 172.496 145.181 175.974 150.898 175.974C156.614 175.974 161.518 172.496 163.61 167.541H138.185Z" fill="#16494C"></path><path id="Fill 25" fill-rule="evenodd" clip-rule="evenodd" d="M151.996 154.8C151.52 154.8 151.099 154.46 151.013 153.976C150.915 153.432 151.277 152.912 151.821 152.816C153.514 152.513 155.909 151.847 157.091 150.963C157.697 150.51 158.017 150.114 158.069 149.754C158.133 149.315 157.803 148.83 157.474 148.523C157.128 148.202 156.691 147.938 156.228 147.658C156.032 147.539 155.835 147.42 155.643 147.296C152.803 145.462 150.813 142.371 150.32 139.028C149.827 135.685 150.839 132.151 153.027 129.575C153.385 129.154 154.017 129.103 154.437 129.461C154.858 129.819 154.909 130.449 154.552 130.87C152.73 133.014 151.888 135.954 152.299 138.737C152.709 141.518 154.365 144.09 156.727 145.616C156.903 145.73 157.082 145.838 157.262 145.946C157.791 146.266 158.339 146.597 158.836 147.059C159.758 147.917 160.199 149.004 160.049 150.041C159.872 151.256 158.959 152.064 158.288 152.565C156.403 153.974 152.863 154.661 152.173 154.784C152.114 154.795 152.054 154.8 151.996 154.8" fill="#16494C"></path><path id="Fill 27" fill-rule="evenodd" clip-rule="evenodd" d="M143.374 134.062C143.374 137.051 140.593 139.475 137.162 139.475C133.731 139.475 130.95 137.051 130.95 134.062C130.95 131.072 133.731 128.649 137.162 128.649C140.593 128.649 143.374 131.072 143.374 134.062" fill="#FFFCF8"></path><path id="Fill 29" fill-rule="evenodd" clip-rule="evenodd" d="M143.374 134.062C143.374 136.338 141.62 138.184 139.455 138.184C137.291 138.184 135.536 136.338 135.536 134.062C135.536 131.785 137.291 129.939 139.455 129.939C141.62 129.939 143.374 131.785 143.374 134.062" fill="#16494C"></path><path id="Fill 31" fill-rule="evenodd" clip-rule="evenodd" d="M170.598 134.062C170.598 137.051 167.817 139.475 164.386 139.475C160.955 139.475 158.174 137.051 158.174 134.062C158.174 131.072 160.955 128.649 164.386 128.649C167.817 128.649 170.598 131.072 170.598 134.062" fill="#FFFCF8"></path><path id="Fill 33" fill-rule="evenodd" clip-rule="evenodd" d="M170.598 134.062C170.598 136.338 168.844 138.184 166.679 138.184C164.515 138.184 162.76 136.338 162.76 134.062C162.76 131.785 164.515 129.939 166.679 129.939C168.844 129.939 170.598 131.785 170.598 134.062" fill="#16494C"></path></g></g></g><g id="Accesories" transform="translate(244 237)"></g></g></svg> 